<svg xmlns="http://www.w3.org/2000/svg" width="35.254" height="32.414" viewBox="0 0 35.254 32.414"><path d="M19.788,1.9a2.35,2.35,0,0,0-3.323,0L.844,17.514a1.177,1.177,0,1,0,1.664,1.664l1.518-1.52V30.1a3.525,3.525,0,0,0,3.525,3.525H28.7A3.525,3.525,0,0,0,32.227,30.1V17.657l1.518,1.52a1.177,1.177,0,0,0,1.664-1.664l-5.532-5.53V4.245A1.175,1.175,0,0,0,28.7,3.07h-2.35a1.175,1.175,0,0,0-1.175,1.175V7.284ZM29.877,15.307V30.1A1.175,1.175,0,0,1,28.7,31.271H7.551A1.175,1.175,0,0,1,6.376,30.1V15.307l11.75-11.75Z" transform="translate(-0.499 -1.207)" fill="#fff"/></svg>