<svg xmlns="http://www.w3.org/2000/svg" width="61.167" height="69.906" viewBox="0 0 61.167 69.906"><g transform="translate(0)"><path d="M19.953,6.947q-6.242,1.72-12.4,3.74a2.1,2.1,0,0,0-1.433,1.7C3.7,30.553,9.3,43.8,15.969,52.534a46.859,46.859,0,0,0,9.992,9.756,26.549,26.549,0,0,0,3.9,2.329,9.713,9.713,0,0,0,1.28.516,2.4,2.4,0,0,0,.441.109,2.688,2.688,0,0,0,.437-.109,9.5,9.5,0,0,0,1.285-.516,27.181,27.181,0,0,0,3.9-2.329A46.863,46.863,0,0,0,47.2,52.534c6.672-8.725,12.264-21.981,9.844-40.143a2.1,2.1,0,0,0-1.433-1.7c-2.844-.931-7.646-2.447-12.4-3.736C38.365,5.636,33.9,4.662,31.584,4.662S24.8,5.636,19.953,6.951Zm-1.162-4.5C23.531,1.158,28.569,0,31.584,0s8.052,1.158,12.793,2.447c4.85,1.311,9.739,2.862,12.614,3.8a6.728,6.728,0,0,1,4.561,5.514c2.6,19.56-3.438,34.057-10.77,43.647a51.446,51.446,0,0,1-11,10.717,31.278,31.278,0,0,1-4.579,2.731,9.267,9.267,0,0,1-3.622,1.049,9.287,9.287,0,0,1-3.622-1.049,31.274,31.274,0,0,1-4.579-2.731,51.455,51.455,0,0,1-11-10.717C5.055,45.819-.988,31.322,1.616,11.762A6.728,6.728,0,0,1,6.177,6.248q6.26-2.053,12.614-3.8Z" transform="translate(-1)" fill="orange"/><path d="M28.894,5.641a2.185,2.185,0,0,1,0,3.093L15.787,21.842a2.185,2.185,0,0,1-3.093,0L6.14,15.288a2.187,2.187,0,1,1,3.093-3.093l5.007,5.011L25.8,5.641a2.184,2.184,0,0,1,3.093,0Z" transform="translate(14.159 16.842)" fill="orange"/></g></svg>