<svg xmlns="http://www.w3.org/2000/svg" width="92.9" height="88.823" viewBox="0 0 92.9 88.823"><g transform="translate(0)"><path d="M33.335,4.5a28.225,28.225,0,0,1,3.7.255,26.856,26.856,0,0,1,8.526,50.524v5.388a2.441,2.441,0,0,1-2.441,2.441H23.59a2.441,2.441,0,0,1-2.441-2.441V55.276A26.857,26.857,0,0,1,33.335,4.5ZM40.68,58.223V53.731a2.442,2.442,0,0,1,1.465-2.238,21.973,21.973,0,0,0-5.777-41.9,21.973,21.973,0,0,0-11.8,41.9,2.442,2.442,0,0,1,1.465,2.238v4.492Z" transform="translate(13.465 15.951)" fill="orange"/><path d="M21.473,4.383H1.941a2.441,2.441,0,1,1,0-4.883H21.473a2.441,2.441,0,1,1,0,4.883Z" transform="translate(35.114 84.44)" fill="orange"/><path d="M60.074,15.8A1.973,1.973,0,0,0,58.1,17.774v10.6a1.973,1.973,0,0,0,1.974,1.974,1.911,1.911,0,0,0,1.974-1.974v-10.6A1.973,1.973,0,0,0,60.074,15.8Z" transform="translate(-13.624 -15.8)" fill="orange"/><path d="M103.274,58.6h-10.6A1.973,1.973,0,0,0,90.7,60.574a1.911,1.911,0,0,0,1.974,1.974h10.6a1.974,1.974,0,1,0,0-3.949Z" transform="translate(-12.348 -14.124)" fill="orange"/><path d="M29.848,60.574A1.973,1.973,0,0,0,27.874,58.6h-10.6A1.973,1.973,0,0,0,15.3,60.574a1.911,1.911,0,0,0,1.974,1.974h10.6A1.973,1.973,0,0,0,29.848,60.574Z" transform="translate(-15.3 -14.124)" fill="orange"/><path d="M84.526,39.208l7.482-7.482A1.984,1.984,0,0,0,89.2,28.921L81.721,36.4a1.984,1.984,0,0,0,2.806,2.806Z" transform="translate(-12.721 -15.308)" fill="orange"/><path d="M35.9,82.224l-7.482,7.482a1.984,1.984,0,0,0,2.806,2.806l7.482-7.482a2.075,2.075,0,0,0,0-2.806A1.889,1.889,0,0,0,35.9,82.224Z" transform="translate(-14.808 -13.224)" fill="orange"/><path d="M31.226,28.921a1.984,1.984,0,1,0-2.806,2.806L35.9,39.208A1.984,1.984,0,0,0,38.708,36.4Z" transform="translate(-14.808 -15.308)" fill="orange"/><path d="M84.526,82.221a1.984,1.984,0,0,0-2.806,2.806L89.2,92.508A1.984,1.984,0,0,0,92.008,89.7Z" transform="translate(-12.721 -13.221)" fill="orange"/></g></svg>