<svg xmlns="http://www.w3.org/2000/svg" width="74.562" height="69.906" viewBox="0 0 74.562 69.906"><path d="M13.351,67.375a2.474,2.474,0,0,0,3.476,2.763L37.285,59.626,57.737,70.139a2.472,2.472,0,0,0,3.476-2.759L57.346,45.338,73.758,29.7a2.588,2.588,0,0,0-1.314-4.427L49.62,22.029,39.442,1.865a2.391,2.391,0,0,0-4.32,0L24.945,22.033,2.12,25.277A2.592,2.592,0,0,0,.8,29.7L17.218,45.343,13.351,67.385ZM36.208,54.481,19.031,63.307l3.234-18.44a2.633,2.633,0,0,0-.76-2.353L7.964,29.606l18.882-2.684a2.447,2.447,0,0,0,1.831-1.342l8.6-17.046L45.882,25.58a2.447,2.447,0,0,0,1.831,1.342L66.6,29.6,53.054,42.51a2.633,2.633,0,0,0-.76,2.358l3.234,18.44L38.352,54.481a2.344,2.344,0,0,0-2.148,0Z" transform="translate(-0.001 -0.499)" fill="orange"/></svg>