<svg xmlns="http://www.w3.org/2000/svg" width="500" height="500" viewBox="0 0 500 500"><g transform="translate(-8361 -8858)"><circle cx="250" cy="250" r="250" transform="translate(8361 8858)" fill="rgba(255,255,255,0)" opacity="0"/><path d="M18.09,361.794a18.09,18.09,0,0,1-16.86-24.641L127.73,11.539A18.091,18.091,0,0,1,144.586,0h.006a18.089,18.089,0,0,1,16.857,11.527L288.205,337.142a18.09,18.09,0,0,1-28.292,20.58L144.648,263.686,29.535,357.714A18.065,18.065,0,0,1,18.09,361.794ZM144.642,222.245a18.06,18.06,0,0,1,11.436,4.072l73.507,59.969L144.609,68l-84.8,218.269L133.2,226.325A18.054,18.054,0,0,1,144.642,222.245Z" transform="translate(8548.095 8866.446) rotate(20)" fill="orange"/></g></svg>