<svg xmlns="http://www.w3.org/2000/svg" width="1358.276" height="500" viewBox="0 0 1358.276 500">
  <g id="Logo_AriWeb" data-name="Logo AriWeb" transform="translate(-5756.082 -8716)">
    <path id="flecha" d="M20.6,412.1A20.6,20.6,0,0,1,1.4,384.029L145.488,13.143A20.607,20.607,0,0,1,164.688,0h.007a20.6,20.6,0,0,1,19.2,13.13L328.274,384.017a20.6,20.6,0,0,1-32.226,23.44L164.759,300.347,33.642,407.449A20.581,20.581,0,0,1,20.6,412.1ZM164.751,253.144a20.565,20.565,0,0,1,13.025,4.639L261.5,326.09,164.714,77.454,68.128,326.069l83.589-68.278A20.569,20.569,0,0,1,164.751,253.144Z" transform="translate(5897.026 8716) rotate(20)" fill="orange"/>
    <path id="ariweb" d="M209.443,83.14A106.16,106.16,0,0,0,103.351,189.233v84.959a21.2,21.2,0,0,0,21.134,21.134c11.412,0,20.711-9.722,20.711-21.134V189.233a64.219,64.219,0,0,1,64.247-64.248,21.2,21.2,0,0,0,21.134-21.134A20.839,20.839,0,0,0,209.443,83.14Zm67.629,212.186a20.839,20.839,0,0,0,20.712-21.134V103.852a20.924,20.924,0,0,0-41.845,0v170.34A20.929,20.929,0,0,0,277.072,295.326Zm0-254.454a21.122,21.122,0,0,0,14.794-5.918,21.121,21.121,0,0,0,5.918-14.794,21.121,21.121,0,0,0-5.918-14.794,21.136,21.136,0,0,0-35.928,14.794,21.525,21.525,0,0,0,6.34,14.794A21.122,21.122,0,0,0,277.072,40.872ZM678.2-.973a20.779,20.779,0,0,0-27.051,12.258l-78.2,203.732L526.454,96.243a20.049,20.049,0,0,0-19.866-13.526c-8.453-.423-16.484,5.072-19.866,13.526L439.8,215.017,364.145,12.975a21,21,0,0,0-39.31,14.794l94.681,253.186A21.563,21.563,0,0,0,439.382,294.9h.423c8.454,0,16.485-5.495,19.866-13.948l46.918-118.773L552.66,280.955A21.563,21.563,0,0,0,572.526,294.9h.423c8.454,0,16.485-5.495,19.866-13.948L690.454,26.078A20.628,20.628,0,0,0,678.2-.973ZM778.372,82.718a106.093,106.093,0,0,0,0,212.186c15.639,0,37.2.423,65.093-18.175,9.722-6.34,15.216-17.33,10.144-27.9-5.072-10.144-18.175-16.062-27.9-9.722-20.289,13.1-37.618,13.948-47.34,13.948-28.32,0-51.99-18.175-60.866-43.536H863.331a20.839,20.839,0,0,0,21.134-20.711C884.465,119.914,829.516,82.718,778.372,82.718Zm0,41.845c25.361,0,52.412,13.526,61.289,43.113H717.506A64.62,64.62,0,0,1,778.372,124.563Zm237.969-42.691a105.9,105.9,0,0,0-64.247,21.557V-1.819A20.745,20.745,0,0,0,931.382-22.53,20.839,20.839,0,0,0,910.248-1.819V187.965c0,58.33,47.763,106.093,106.093,106.093a106.093,106.093,0,1,0,0-212.186Zm0,170.34a64.219,64.219,0,0,1-64.247-64.248v-.423c0-35.082,28.742-63.825,64.247-63.825a64.248,64.248,0,1,1,0,128.5Z" transform="translate(5991.923 8829.422)" fill="#fff"/>
  </g>
</svg>
