<svg xmlns="http://www.w3.org/2000/svg" width="206" height="187.039" viewBox="0 0 206 187.039"><path d="M141.829,349.993a7.64,7.64,0,0,0,2.692-.585,6.944,6.944,0,0,0,2.458-1.522l78.889-79.123a20.03,20.03,0,0,0,4.565-6.945,21.339,21.339,0,0,0,1.522-7.8,22.148,22.148,0,0,0-1.522-7.959,19.863,19.863,0,0,0-4.565-7.023L183.732,196.9a19.863,19.863,0,0,0-7.023-4.565,22.147,22.147,0,0,0-7.959-1.522,21.338,21.338,0,0,0-7.8,1.522A20.03,20.03,0,0,0,154,196.9l-4.214,4.214,18.961,19.2a36.88,36.88,0,0,1,5.384,7.608,19.618,19.618,0,0,1,2.341,9.481q0,8.9-6.906,15.684a21.923,21.923,0,0,1-15.8,6.789,21.387,21.387,0,0,1-16.781-6.751l-17.162-17.126-42.37,42.37a6.772,6.772,0,0,0-1.639,2.464,8.085,8.085,0,0,0-.468,2.772,6.8,6.8,0,0,0,6.945,6.937,5.7,5.7,0,0,0,2.77-.7,9.659,9.659,0,0,0,2.224-1.639l32.3-32.3,9.832,9.832-32.07,32.07a6.57,6.57,0,0,0-1.639,2.575,8.837,8.837,0,0,0-.468,2.809,7.2,7.2,0,0,0,7.023,7.023,6.434,6.434,0,0,0,2.692-.585,7.5,7.5,0,0,0,2.224-1.522l32.3-32.3,9.832,9.832-32.07,32.07a7,7,0,0,0-1.522,2.419,8.025,8.025,0,0,0-.585,2.965,7.2,7.2,0,0,0,7.023,7.023,6.873,6.873,0,0,0,2.575-.468,7.133,7.133,0,0,0,2.341-1.639l32.3-32.3,9.832,9.832-32.3,32.3a6.57,6.57,0,0,0-1.639,2.575,8.2,8.2,0,0,0-.468,2.575,6.479,6.479,0,0,0,7.023,7.023Zm.015,14.045a19.621,19.621,0,0,1-13.826-5.735,23.321,23.321,0,0,1-7.257-14.19,22.954,22.954,0,0,1-19.9-19.87,22.233,22.233,0,0,1-13.226-6.672A23.813,23.813,0,0,1,81.2,304.345a23.52,23.52,0,0,1-14.28-7.023A19.562,19.562,0,0,1,61.3,283.277a21.588,21.588,0,0,1,1.574-7.971,20.99,20.99,0,0,1,4.512-7.011l52.436-52.436,25.75,25.75a14.87,14.87,0,0,0,4.057,2.926,9.986,9.986,0,0,0,4.37,1.053,9.32,9.32,0,0,0,8.427-8.463A7.54,7.54,0,0,0,161.61,234a13.163,13.163,0,0,0-2.692-3.628L125.443,196.9a19.863,19.863,0,0,0-7.023-4.565,22.147,22.147,0,0,0-7.959-1.522,21.338,21.338,0,0,0-7.8,1.522,20.116,20.116,0,0,0-6.931,4.531l-35.6,35.615a18.674,18.674,0,0,0-4.565,6.906,28.871,28.871,0,0,0-1.522,8.193,18.733,18.733,0,0,0,1.756,8.9,37.649,37.649,0,0,0,4.8,7.842L50.534,274.382a41.051,41.051,0,0,1-7.608-12.407A39.125,39.125,0,0,1,40,247.227a34.547,34.547,0,0,1,2.692-13.46A35,35,0,0,1,50.3,222.414l35.348-35.348A32.709,32.709,0,0,1,97.3,179.458,37.465,37.465,0,0,1,110.647,177a36.914,36.914,0,0,1,13.275,2.458,32.854,32.854,0,0,1,11.587,7.608l4.214,4.214,4.214-4.214a32.709,32.709,0,0,1,11.656-7.608A37.465,37.465,0,0,1,168.936,177a36.914,36.914,0,0,1,13.275,2.458,32.854,32.854,0,0,1,11.587,7.608l41.9,41.9a33.989,33.989,0,0,1,7.725,11.712A36.25,36.25,0,0,1,246,254.024a35.292,35.292,0,0,1-2.575,13.218,34.3,34.3,0,0,1-7.725,11.587l-78.889,78.889A21.632,21.632,0,0,1,149.9,362.4,20.453,20.453,0,0,1,141.844,364.039ZM118.889,236.225Z" transform="translate(-40 -177)" fill="#7509b3"/></svg>