<svg xmlns="http://www.w3.org/2000/svg" width="77.673" height="69.906" viewBox="0 0 77.673 69.906"><path d="M114.953,285.906v-5.826h33.011V250.564a25.282,25.282,0,0,0-2.427-10.825,31.118,31.118,0,0,0-6.505-9.175,32.392,32.392,0,0,0-9.321-6.36,26.051,26.051,0,0,0-21.748,0,32.389,32.389,0,0,0-9.321,6.36,31.113,31.113,0,0,0-6.5,9.175,25.281,25.281,0,0,0-2.427,10.825v23.691H87.767A7.791,7.791,0,0,1,80,266.487V258.72a7.236,7.236,0,0,1,1.068-3.932,8.538,8.538,0,0,1,2.816-2.767l.291-5.146A35.233,35.233,0,0,1,88.2,234.058a34.142,34.142,0,0,1,7.864-9.709,35.359,35.359,0,0,1,10.583-6.165,35.345,35.345,0,0,1,24.467,0,34.194,34.194,0,0,1,10.535,6.214,35.442,35.442,0,0,1,7.816,9.709,34.677,34.677,0,0,1,4.03,12.671l.291,5.048a7.064,7.064,0,0,1,3.884,6.311v8.933a6.813,6.813,0,0,1-1.068,3.786,7.051,7.051,0,0,1-2.816,2.524v6.7a5.843,5.843,0,0,1-5.825,5.826Zm-7.767-28.157a2.794,2.794,0,0,1-2.039-.873,2.85,2.85,0,0,1-.874-2.088,2.692,2.692,0,0,1,.874-2.039,2.935,2.935,0,0,1,2.088-.825,2.748,2.748,0,0,1,2.039.837,2.961,2.961,0,0,1-.012,4.114A2.759,2.759,0,0,1,107.186,257.749Zm23.3,0a2.794,2.794,0,0,1-2.039-.873,2.85,2.85,0,0,1-.874-2.088,2.692,2.692,0,0,1,.874-2.039,2.935,2.935,0,0,1,2.087-.825,2.749,2.749,0,0,1,2.039.837,2.961,2.961,0,0,1-.012,4.114A2.758,2.758,0,0,1,130.487,257.749ZM95.632,252.7a22.27,22.27,0,0,1,1.6-10.389,24.031,24.031,0,0,1,5.34-7.913,24.129,24.129,0,0,1,16.457-6.748,21.023,21.023,0,0,1,14.855,5.584,23.629,23.629,0,0,1,7.379,13.932,28.075,28.075,0,0,1-16.069-4.9,32.312,32.312,0,0,1-10.729-12.477,31.009,31.009,0,0,1-6.554,13.933A30.221,30.221,0,0,1,95.632,252.7Z" transform="translate(-80 -216)" fill="orange"/></svg>