<svg xmlns="http://www.w3.org/2000/svg" width="68.639" height="16.761" viewBox="0 0 68.639 16.761"><g transform="translate(0)"><path d="M41.52,6.749h-3.8a.528.528,0,0,0-.522.445l-1.536,9.74a.317.317,0,0,0,.313.365h1.813a.528.528,0,0,0,.522-.446l.414-2.627a.528.528,0,0,1,.521-.446h1.2c2.5,0,3.946-1.211,4.323-3.61a2.926,2.926,0,0,0-.484-2.452,3.524,3.524,0,0,0-2.769-.97Zm.438,3.557c-.208,1.363-1.249,1.363-2.256,1.363h-.573l.4-2.545a.317.317,0,0,1,.313-.267h.263c.686,0,1.333,0,1.667.391a1.266,1.266,0,0,1,.184,1.059Zm10.916-.044H51.055a.317.317,0,0,0-.313.267l-.081.509-.127-.184a2.589,2.589,0,0,0-2.148-.763,4.183,4.183,0,0,0-4.061,3.658A3.433,3.433,0,0,0,45,16.543a2.846,2.846,0,0,0,2.291.925,3.48,3.48,0,0,0,2.518-1.041l-.081.505a.317.317,0,0,0,.312.367h1.638a.528.528,0,0,0,.522-.446l.983-6.225a.315.315,0,0,0-.312-.365ZM50.339,13.8a2.027,2.027,0,0,1-2.052,1.737,1.409,1.409,0,0,1-1.507-1.768,2.036,2.036,0,0,1,2.038-1.751,1.534,1.534,0,0,1,1.213.5A1.574,1.574,0,0,1,50.339,13.8Zm12.223-3.54H60.733a.53.53,0,0,0-.437.232l-2.521,3.713-1.069-3.568a.529.529,0,0,0-.507-.377H54.4a.317.317,0,0,0-.3.419l2.013,5.908-1.893,2.672a.317.317,0,0,0,.258.5h1.826a.527.527,0,0,0,.434-.227l6.079-8.775a.317.317,0,0,0-.26-.5Z" transform="translate(-15.855 -3.001)" fill="#253b80"/><path d="M90.3,6.749H86.5a.528.528,0,0,0-.521.445l-1.536,9.74a.316.316,0,0,0,.312.365h1.949a.369.369,0,0,0,.364-.312l.436-2.761a.528.528,0,0,1,.521-.446h1.2c2.5,0,3.946-1.211,4.324-3.61a2.924,2.924,0,0,0-.485-2.452,3.521,3.521,0,0,0-2.768-.97Zm.438,3.557c-.207,1.363-1.249,1.363-2.256,1.363h-.573l.4-2.545a.315.315,0,0,1,.312-.267h.263c.685,0,1.333,0,1.667.391a1.266,1.266,0,0,1,.184,1.059Zm10.915-.044H99.837a.315.315,0,0,0-.312.267l-.081.509-.128-.184a2.588,2.588,0,0,0-2.148-.763,4.182,4.182,0,0,0-4.06,3.658,3.435,3.435,0,0,0,.677,2.794,2.847,2.847,0,0,0,2.291.925,3.48,3.48,0,0,0,2.518-1.041l-.081.505a.317.317,0,0,0,.313.367h1.638a.528.528,0,0,0,.521-.446l.984-6.225a.317.317,0,0,0-.314-.365ZM99.119,13.8a2.026,2.026,0,0,1-2.052,1.737A1.409,1.409,0,0,1,95.56,13.77,2.037,2.037,0,0,1,97.6,12.02a1.534,1.534,0,0,1,1.213.5A1.566,1.566,0,0,1,99.119,13.8Zm4.68-6.786-1.559,9.918a.316.316,0,0,0,.312.365h1.567a.527.527,0,0,0,.522-.446l1.537-9.739a.317.317,0,0,0-.312-.366h-1.755a.317.317,0,0,0-.312.268Z" transform="translate(-37.543 -3)" fill="#179bd7"/><path d="M4.507,16.647,4.8,14.8l-.647-.015H1.061L3.208,1.173a.176.176,0,0,1,.174-.149h5.21c1.73,0,2.923.36,3.546,1.07a2.44,2.44,0,0,1,.568,1.065,3.844,3.844,0,0,1,0,1.468L12.7,4.67v.375L13,5.211a2.049,2.049,0,0,1,.591.451,2.1,2.1,0,0,1,.48,1.076A4.553,4.553,0,0,1,14,8.3a5.5,5.5,0,0,1-.64,1.768,3.636,3.636,0,0,1-1.014,1.111,4.112,4.112,0,0,1-1.365.616,6.808,6.808,0,0,1-1.706.2H8.869a1.219,1.219,0,0,0-1.206,1.029l-.031.166-.513,3.252-.023.119a.1.1,0,0,1-.032.069.086.086,0,0,1-.053.019Z" transform="translate(-0.472 -0.455)" fill="#253b80"/><path d="M15.552,7.667q-.023.149-.053.305c-.687,3.527-3.037,4.746-6.039,4.746H7.931a.742.742,0,0,0-.734.629L6.415,18.31l-.222,1.407a.391.391,0,0,0,.386.452H9.29a.652.652,0,0,0,.644-.55l.027-.138.51-3.239.033-.178a.652.652,0,0,1,.644-.551h.405c2.626,0,4.683-1.066,5.283-4.152a3.535,3.535,0,0,0-.543-3.122,2.592,2.592,0,0,0-.742-.572Z" transform="translate(-2.751 -3.409)" fill="#179bd7"/><path d="M15.641,6.953a5.419,5.419,0,0,0-.668-.148,8.489,8.489,0,0,0-1.347-.1H9.542a.651.651,0,0,0-.644.551l-.869,5.5L8,12.92a.742.742,0,0,1,.734-.629h1.528c3,0,5.352-1.219,6.039-4.746.021-.1.038-.206.053-.305A3.662,3.662,0,0,0,15.795,7l-.154-.048Z" transform="translate(-3.559 -2.982)" fill="#222d65"/><path d="M5.34,4.276a.649.649,0,0,1,.644-.55h4.083a8.489,8.489,0,0,1,1.347.1,5.419,5.419,0,0,1,.823.2,3.717,3.717,0,0,1,.565.238,3.331,3.331,0,0,0-.706-2.995C11.318.379,9.916,0,8.121,0H2.911a.745.745,0,0,0-.736.629L.006,14.384a.448.448,0,0,0,.442.518H3.663l.808-5.124Z" transform="translate(0)" fill="#253b80"/></g></svg>