<svg xmlns="http://www.w3.org/2000/svg" width="44.509" height="33.382" viewBox="0 0 44.509 33.382"><path d="M41.727,35.381A2.724,2.724,0,0,0,44.509,32.6c0-2.782-2.782-11.127-13.909-11.127S16.691,29.818,16.691,32.6a2.724,2.724,0,0,0,2.782,2.782ZM19.534,32.6l-.061-.011A8.537,8.537,0,0,1,21.587,27.8c1.536-1.8,4.234-3.55,9.013-3.55s7.475,1.753,9.013,3.55a8.565,8.565,0,0,1,2.114,4.785l-.022.006-.039.006ZM30.6,15.909a5.564,5.564,0,1,0-5.564-5.564A5.564,5.564,0,0,0,30.6,15.909Zm8.345-5.564A8.345,8.345,0,1,1,30.6,2a8.345,8.345,0,0,1,8.345,8.345ZM19.294,22.251a16.357,16.357,0,0,0-3.422-.687q-.979-.093-1.964-.092C2.782,21.473,0,29.818,0,32.6a2.458,2.458,0,0,0,2.782,2.782H14.51a6.226,6.226,0,0,1-.6-2.782,12.766,12.766,0,0,1,3.032-8.078A14.719,14.719,0,0,1,19.294,22.251Zm-5.608,2A15.28,15.28,0,0,0,11.127,32.6H2.782A8.536,8.536,0,0,1,4.9,27.8c1.516-1.769,4.15-3.494,8.79-3.547ZM4.173,11.736a8.345,8.345,0,1,1,8.345,8.345A8.345,8.345,0,0,1,4.173,11.736Zm8.345-5.564a5.564,5.564,0,1,0,5.564,5.564A5.564,5.564,0,0,0,12.518,6.173Z" transform="translate(0 -2)" fill="#fff"/></svg>