<svg xmlns="http://www.w3.org/2000/svg" width="93.333" height="70" viewBox="0 0 93.333 70"><path d="M18.153,11.6A8.75,8.75,0,0,1,26.862,2H40.833A2.917,2.917,0,0,1,43.75,4.917V7.145c0,4.06-2.9,6.9-5.087,8.569a2.677,2.677,0,0,0-.671.688.659.659,0,0,0-.07.146l-.006.035V16.6l.017.058a1.158,1.158,0,0,0,.21.309A5.017,5.017,0,0,0,39.719,18.1a16.084,16.084,0,0,0,6.948,1.4,15.959,15.959,0,0,0,6.942-1.4,5.017,5.017,0,0,0,1.581-1.132,1.242,1.242,0,0,0,.227-.367v-.053a.653.653,0,0,0-.07-.146,2.678,2.678,0,0,0-.671-.688c-2.187-1.674-5.087-4.509-5.087-8.569V4.917A2.917,2.917,0,0,1,52.5,2H66.471a8.75,8.75,0,0,1,8.709,9.6L73.762,28.25h1.383c1.137,0,2.45-.858,3.937-2.8a7.017,7.017,0,0,1,5.5-3.033c3.313,0,5.524,2.608,6.732,5.028A21.766,21.766,0,0,1,93.333,37a21.766,21.766,0,0,1-2.018,9.555c-1.208,2.421-3.418,5.028-6.732,5.028a7.017,7.017,0,0,1-5.5-3.033c-1.488-1.943-2.8-2.8-3.937-2.8H73.762L75.18,62.4A8.75,8.75,0,0,1,66.471,72H52.5a2.917,2.917,0,0,1-2.917-2.917V66.855c0-4.06,2.9-6.9,5.087-8.569a2.678,2.678,0,0,0,.671-.688.659.659,0,0,0,.07-.146l.006-.035V57.4a1.248,1.248,0,0,0-.227-.373A5.011,5.011,0,0,0,53.614,55.9a16.084,16.084,0,0,0-6.947-1.4,15.979,15.979,0,0,0-6.942,1.4,5.011,5.011,0,0,0-1.581,1.132,1.249,1.249,0,0,0-.227.368v.017l.006.035a.659.659,0,0,0,.07.146,2.649,2.649,0,0,0,.671.688c2.188,1.674,5.087,4.509,5.087,8.569v2.228A2.917,2.917,0,0,1,40.833,72H26.862a8.75,8.75,0,0,1-8.709-9.6L19.577,45.75H18.188c-1.138,0-2.45.857-3.938,2.8a7.017,7.017,0,0,1-5.5,3.033c-3.313,0-5.524-2.607-6.732-5.028A21.766,21.766,0,0,1,0,37a21.766,21.766,0,0,1,2.018-9.555c1.207-2.421,3.418-5.028,6.732-5.028a7.017,7.017,0,0,1,5.5,3.033c1.488,1.943,2.8,2.8,3.938,2.8h1.388Zm8.709-3.763a2.917,2.917,0,0,0-2.9,3.208l.006.041,1.692,19.833a2.917,2.917,0,0,1-2.9,3.168H18.188c-4.06,0-6.9-2.9-8.569-5.087a2.678,2.678,0,0,0-.688-.671.653.653,0,0,0-.146-.07L8.75,28.25H8.733a1.243,1.243,0,0,0-.373.227,5.017,5.017,0,0,0-1.126,1.575A16.084,16.084,0,0,0,5.833,37a15.979,15.979,0,0,0,1.4,6.942,5.035,5.035,0,0,0,1.132,1.581,1.242,1.242,0,0,0,.367.227H8.75l.035-.006a.653.653,0,0,0,.146-.07A2.678,2.678,0,0,0,9.619,45c1.674-2.187,4.509-5.087,8.569-5.087H22.75a2.917,2.917,0,0,1,2.905,3.162l-1.692,19.88a2.917,2.917,0,0,0,2.9,3.208H37.818a7.019,7.019,0,0,0-2.7-3.249,7.017,7.017,0,0,1-3.033-5.5c0-3.313,2.607-5.524,5.028-6.732a21.766,21.766,0,0,1,9.555-2.018,21.766,21.766,0,0,1,9.555,2.018c2.421,1.207,5.028,3.418,5.028,6.732a7.017,7.017,0,0,1-3.033,5.5,6.991,6.991,0,0,0-2.7,3.249H66.471a2.917,2.917,0,0,0,2.9-3.208l-.006-.041L67.678,43.084a2.917,2.917,0,0,1,2.9-3.167h4.562c4.06,0,6.9,2.9,8.569,5.087a2.648,2.648,0,0,0,.688.671.906.906,0,0,0,.146.07.117.117,0,0,0,.035.006H84.6a1.248,1.248,0,0,0,.373-.227A5.017,5.017,0,0,0,86.1,43.947,16.045,16.045,0,0,0,87.5,37a15.959,15.959,0,0,0-1.4-6.942,5.017,5.017,0,0,0-1.132-1.581,1.254,1.254,0,0,0-.367-.228h-.018l-.035.006a.659.659,0,0,0-.146.07,2.677,2.677,0,0,0-.688.671c-1.674,2.187-4.509,5.087-8.569,5.087H70.583a2.917,2.917,0,0,1-2.9-3.168L69.37,11.042a2.917,2.917,0,0,0-2.9-3.208H55.516a7.019,7.019,0,0,0,2.7,3.249,7.017,7.017,0,0,1,3.033,5.5c0,3.313-2.607,5.524-5.028,6.732a21.766,21.766,0,0,1-9.555,2.018,21.766,21.766,0,0,1-9.555-2.018c-2.421-1.208-5.028-3.418-5.028-6.732a7.017,7.017,0,0,1,3.033-5.5,6.991,6.991,0,0,0,2.7-3.249Z" transform="translate(0 -2)" fill="orange"/></svg>