<svg xmlns="http://www.w3.org/2000/svg" width="203.485" height="183.133" viewBox="0 0 203.485 183.133"><path d="M23.348,3A20.348,20.348,0,0,0,3,23.348v49.69A20.348,20.348,0,0,0,23.348,93.386H51.591a184.891,184.891,0,0,1-1.262,21.447,71.4,71.4,0,0,1-6.308,20.185,37.5,37.5,0,0,1-11.375,13.9q-6.929,5.677-17.662,5.677v31.54q17.672,0,30.929-7.569a67.6,67.6,0,0,0,22.078-20.185,100.113,100.113,0,0,0,12.616-29.668,156.925,156.925,0,0,0,3.785-35.324V23.348A20.348,20.348,0,0,0,64.044,3ZM145.437,3a20.348,20.348,0,0,0-20.348,20.348v49.69a20.348,20.348,0,0,0,20.348,20.348H173.68a184.891,184.891,0,0,1-1.262,21.447,71.4,71.4,0,0,1-6.308,20.185,37.5,37.5,0,0,1-11.375,13.9q-6.929,5.677-17.662,5.677v31.54q17.672,0,30.929-7.569a67.6,67.6,0,0,0,22.078-20.185A100.111,100.111,0,0,0,202.7,128.711a156.925,156.925,0,0,0,3.785-35.324V23.348A20.348,20.348,0,0,0,186.133,3Z" transform="translate(-3 -3)" fill="#ab19ff"/></svg>