<svg xmlns="http://www.w3.org/2000/svg" width="1865.42" height="1601.58" viewBox="0 0 1865.42 1601.58"><g transform="translate(290.821 1240.526) rotate(-90)"><path d="M1165.7,513.592c-110.055,26.708-187.715,49.92-194.922,70.2,65.41,20.956,166.463,40.371,251.2,59.841,28.662,22.332-14.307,47.554-108.33,78.073-105.525,36.477-178.974,81.169-195.076,135.465,43.146,60.474,121.318,129.094,199.168,202.984,48.427,71.055,45.716,137.432-6.6,191.7-87.019,35.032-182.589,47.155-261.818,33.12-47-34.62-54.4-86.233-28.638-143.776,49.474-45.173,103.37-68.015,146.542-56.388,25.391,50.251,24.178,133.566-1.95,235.691C917.874,1417.549,856.65,1488.151,790.1,1512.8c-69.026-26.35-131.76-96.084-185.194-186.224-45.68-75.156-80.918-108.977-107.771-83.494-20.194,81.045-35.762,192.4-49.486,295.312-10.905,56.291-23.024,44.155-37.973-33-14.367-108.413-32.8-204.924-55.9-246.836-23.1,33.478-50.282,125.214-80.894,234.384-30.029,83.013-62.234,103.583-94.88,54.888-29.826-98.974-57.042-211.474-78.73-298.05-15.044-33.436-20.812-6.976-15.151,63.845,13.415,90.03,37.129,163.782,68.228,196.751,28.638-17.3,53.053-82.159,64.863-176.441-9.45-102.86-42.611-190.03-101.036-246.03-76.2-18.08-161.8-.729-241.553,40.908-56.015,56.346-77.445,109.225-57.7,147,51.96,18.6,121.822,11.462,184.789-18.947,28.281-50.237,8.61-113.848-60.415-183.431-98.447-73.587-195.43-142.977-255.5-204.965-.82-56.484,57.6-103.583,150.086-142.4,80.99-33.023,112.933-60.419,75.364-84.5-93.648-21.19-201.5-41.857-271.475-63.639,2.64-21.08,77.957-44.692,188.012-71.4,84.51-26.726,99.983-55.926,41.507-86.886-102.016-30.258-192.614-60.846-226.878-90.058,37.545-26.309,130.38-48.393,236.356-63.859,75.542-9.646,91.7-10.017,48.582.165-81.536,15.686-162.145,39.931-208.182,69.652,5.435,25.717,62.994,46.742,152.773,55.81,96.891-10.76,172.778-43.357,211.429-100.185-3.373-76-40.519-165.557-94.582-256.908-77.267-102-77.267-87.691,2.343,16.058,71.713,66.46,144.449,105.441,210.762,98.933,58.4-56.773,103.324-152.293,135.494-261.9,21.074-90.4,33.134-134.281,39.995-115.953,1.213,71.5,2.141,171.24,5.316,259.894,1.748,38.417,7.936,10.017,19.457-78.252,11.393-114.454,28.507-208.914,51.586-242.433,23.1,41.885,51.614,141.079,85.188,254.776,33.466,82.462,71.594,102.5,113.389,56.539,40.376-92.589,82.227-191.192,122.913-257.184,35.036-10.43,64,40.77,82.952,135.492,7.849,109.734,1.962,201.25-18.517,251.418-28.4-.784-64.339-45.476-100.469-114.7-23.654-74.316-30.053-127.883-10.858-146.6C775.44-89.76,847.4-33.579,934.8,46.6c84.343,92.534,150.312,180.844,180.972,253.7-11.382,52.26-61.545,79.917-134.388,86.067C915.64,373.3,880.45,349.491,895.577,322.315c66.635-30.024,166.047-53.5,264.518-67.684,60.07-7.994,58.964-5.242-3.533,6.742-92.942,17.956-174.763,42.215-203.425,70.271,43.146,30.918,140.525,62.772,247.115,93.855,63.068,31.758,49.973,61.355-34.513,88.076l-.048.014" fill="none" stroke="#ffdb0d" stroke-linecap="round" stroke-width="1.5" opacity="0.68"/><path d="M1142.434,485.69C1036,511.564,957.681,538.3,943.076,566.324c54.566,28.692,149.1,59.965,238.182,94.959,45.017,37.284,24.128,80.037-52.737,129.231-102.707,52.178-191.535,110.756-236.135,174.58,11.855,63.019,69.647,126.358,146.87,185.351,69.492,48.028,103.036,82.8,90.034,99.151-56.237-2.707-140.4-25.846-230.379-66.92-102.009-72.333-105.729-140.835-40.268-82.217,46.475,78.857,78.932,175.3,91.994,271.4-6.334,74.1-32.8,110.769-74.288,99.887C822.728,1419,764.027,1338.18,705.518,1254.76c-58.891-54.8-111.939-62.325-158.091-14.1-42.34,92.489-78.057,202.064-108.486,292.831-27.748,40.768-52.379,16.6-75.336-64.921-22.192-105.8-44.156-197.094-66.432-236.35-22.276,31.038-44.335,117.418-65.524,223.4-20.447,86.6-38.551,118.709-52.821,85.728-11.58-85.77-17.125-194.9-15.2-291.4,5.736-55.287,19.229-55.412,39.508-6.441,19.909,81.009,40.963,163.433,58.022,221.081,4.9,17.754-4.135-12.174-32.122-81.3C181.638,1289.42,116.019,1192,37.682,1109.53c-78.2-55.954-147.025-78.3-193.022-69.918-13.922,34.466,7,81.731,58.341,129.717,93.356,56.5,118.332,49.541,1.4-10.4-97.084-56.287-173.029-117.946-201.221-180.2,28.274-63.81,102.594-123.012,192.748-176.19,64.292-50.582,74.546-94.806,20.928-133.409-97.671-36.451-198.763-68.9-257.733-98.416,10.194-28.858,86.258-56.037,192.688-81.911,82.685-25.874,102.272-49.832,52.259-71.375-160.936-45.987,71.989-47.847,79.315-22.251-62.405,17.421-143.464,35.355-210.625,49.152-30.569,2.151-11.078-8.453,51.53-36.521C-86.5,361.081,4.509,295.966,75.949,215.762,115.226,130.755,117.632,47.97,90.194-20.407,41.616-62.7-10.429-72.669-52.434-47.281-78.426,4.648-79.98,73.247-58.313,140.167c41.815,42.2,97.682,47.056,160,6.246C168.027,65.724,230.132-37.8,284.71-137.77c48.614-67.947,87.777-84.687,118.87-44.016,25.108,81.886,45.066,178.661,62.3,254.45C480.3,95.692,494.845,55.993,511.105-35.7c15.619-111.089,34.286-200.107,56.549-231.186C589.93-227.663,615.3-133.772,643.073-22.85c27.116,86.658,55.33,118.473,82.912,87.713,24.773-80.773,46.081-177.981,61.389-255.894,9.323-33.633,9.72-9.286-.3,64.463-15.977,102.385-40.428,204.3-70.2,280.1-25.753,33.98-46.12,22.39-53.609-24.75C675.942,59.658,710.658-7.984,768.509-56.3c73.891-19.905,156.511-3.97,234.3,43.614,56.633,72.319,82.039,156.965,69.061,241.749-45.148,78.094-111.341,139.767-177.379,182.353-39.412,23.542-37.321,30.01,13.122,24.472,87.022-16.5,186.246-36.118,264.976-54.3,30.5-18.975,2-31.607-74.81-36.854-123.112.333-59.4,37.437,90.25,68.322,54.422,22.376,37.094,46.765-45.591,72.639h0" fill="none" stroke="#ffdb0d" stroke-linecap="round" stroke-width="1.5" opacity="0.8"/><path d="M1120.116,556.879c-102.759,25.032-181.793,54.364-203.885,88.01,43.114,33.969,129.406,72.784,220.138,116.558,58.972,44.376,60.092,93.655,3.988,147.052-92.825,52.333-188.965,106.29-256.8,159.015-20.29,46.267,8.841,85.657,71.682,113.924,75.334,14.932,134.389,14.176,158.824-3.628-72.558-65.668-239.1-150.835-366.422-184.341-20.578,75.838,44.364,245.008,117.5,413.38,26.825,42.023,37.444,43.031,31.831,1.947-19.749-69.45-52.028-150.54-92.4-218.688-47.548-30.341-96.861-12.061-144.805,55.036-48.917,99.1-93.653,202.985-133.453,279.747-38.959,25.4-73.063-9.637-102.591-94.356-29.108-102.648-54.359-188.669-75.814-225.341-21.456,28.674-38.621,109.68-51.308,211.95-12.265,89.019-19.353,131.392-20.867,113.826-.66-70.949,4.324-172.911,14.308-274.382,9.01-72.938,20.206-98.6,30.562-74.983,3.2,63.791-.78,144.069-16.277,216.208-29.625,46.52-74.445,52.137-134.354,16.305C30.714,1252.28-95.856,1078.79-131.523,992.755c71.081,23.729,186.731,105.534,214.585,174.1-46.767,21.04-126.617,25.522-221.1,14.344-81.965-24.5-128.588-60.653-124.034-104.385C-209.956,1026.16-127.775,973.565-47.059,922c43.98-53.033,32.624-102.34-34.633-146.94-99.024-44.208-191.62-83.472-238.987-117.8,17.849-34.053,94.711-63.623,197.47-88.641C-42.9,543.6-20.234,523.71-62.591,509.03c-66.012-15.464,16.085.77-93.462-18.868-56.737-29.906-73.868-74.283-46.959-133.9,151.388-145.7,307.245-299.317,359.55-388.644C97.374-11.931,7.326,102.2-36.367,211.94c2.306,9.777,23.45-20.087,59.177-88.921C70.621,28.565,124.56-72.108,179.683-154.221c56.845-41.967,109.375-32.6,156.134,26.236,44.067,87.339,81.969,177.352,114.547,238.621,30.357,7.928,57.061-41.8,81.256-135.776,23.521-107.215,45.806-190.756,67.261-219.43,21.456,36.67,41.591,125.229,59.862,232.821,37.925,57.067,31.774-181.665,4.9-133.969C645.708-59.235,628.038,42.251,615.447,134c-.5,63.4,12.566,86.637,43.334,70.669,109.847-116.25,261.512-226.1,376.933-236.337,3.941,99.1-101.046,256.1-207.743,398.9-4.561,56.367,33.36,97,109.234,123.155,173.421,6.472-5.886-22.468-21.4-21.124,66.312,3.418,165.816,12.635,258.509,27.4,46.6,15.086,26.1,35.2-54.2,60.219h0" fill="none" stroke="#ffdb0d" stroke-linecap="round" stroke-width="1.5" opacity="0.62"/><path d="M1100.11,688c-99.33,24.166-178.082,53.309-205.763,87.033,33.158,33.555,110.832,71.309,200.516,112.359,89.906,78.464-25.063,159.078-201.679,221.8-47.751,29.808,59.167,13.773,175.719-50.41,3.43-67.8-122.442-108.838-276.807-67.463-96.264,132.749-96.8,308.3-42.709,423.911,70.862-20.871,103.124-157.381,89.006-278.252C789.308,1174.1,718.915,1355.79,648.844,1512.65c-37.025,10.52-70.886-34.036-100.711-120.843-29.96-98.968-55.5-179.709-76.195-213.843-20.712,26.371-36.116,102.008-46.478,200.1-10.519,90.314-16.4,141.558-18.437,138.688-8.023-147.2-12.968-334.092-35.655-384.7-57.652,112.1-158.123,252.4-292.816,284.842C-39.357,1311.57-98.274,1137.4-56.3,997.981,43.783,946.157,120.547,979.415,74,1044.81c-159.661,66.855-303.713,88.575-286.333,64.649,146.257-56.9,237.662-133.71,131.774-210.2-97.683-40.3-181.44-77.573-218.707-110.874,23.592-33.512,100.239-62.557,199.571-86.722C-20.753,677.5,6.043,658.8-27.783,645.243c-126.491-18.312-130.635-48.317,79.079-80.684-56.961-59.8-196.953-161.1-251.357-302.418C-109.686,122.274,53.854,19.644,171.545,8.106,188.512,84.18,126.7,201.064,55.538,256.069,11.508,173.363,28.778-10.263,89.569-157.788c89.95,15.144,182.045,174.533,260.022,303.1,38.686-6.434,72.765-64.748,102.215-159.828,29.183-102.871,54.162-180.967,74.861-207.381C547.379-187.791,563.344-104.618,574.478-.87,585.361,90.717,591.032,142.4,591.4,141.24c.121-138.193-16.615-292.393-34.807-294.118,10.98,156.264,61.919,336.1,169.769,407.311C922,130.027,899.3,78.613,794.833,276.068c97.539,138.66,274.662,234.29,361.983,288.221-146.1,37.245,34.589,90.257-56.707,123.713h0" transform="translate(0)" fill="none" stroke="#ffdb0d" stroke-linecap="round" stroke-width="1.5" opacity="0.39"/><path d="M1079.1,803.937c-174.939,46.592-183.88,103.182-30.782,162.471,77.957,69.9-207.394,56.019-55.464-32.937,69.829-30.766,11.24-4.913-127.419,103.467-179.932,232.288-143.715,208.363-88.632,61.1,7.023,81.6-17.427,269.524-58.292,398.287-49.783-53.833-98.593-236.544-138.709-345.982-40.117,96.711-69.643,280.95-95.506,347.981-34.779-117.622-83.314-307.5-159.85-401.115C226.671,1162.655,106.957,1302.787-4.6,1386.487c-58.834-36.322-41.739-177.026,48.282-337.355,86.074-116.294,97.092-151.388-14.5-127.106-165.7,61.6-257.656,112.437-186.541,132.048,146.384-2.957,197.593-36.008,67.135-84.128-168.581-56.433-167.77-111.623,7.169-158.229,106.55-46.587,6.334-82.352-154.573-113.79C-253.317,658.177-97.515,606.486,53.148,528.7c.713-100.339-121.9-227.888-222.791-361.308,16.811-96.1,147.552-127.906,296.259-72.7,91.792,99.268,94.67,184.725,45.319,172.57C83.845,44.128,135.349-5.349,228,175.991,296.921,91.02,354.242-102.631,394.358-199.4c40.116,109.381,61.145,301.547,67.873,373.4,12.739-110.751,26.219-272.151,59.6-319.643C586.92-34.786,690.568,148.053,821.678,271.617c138.561-45.478-11.007-215.9-27.658-92.841,142.633,136.09,301.241,262.168,329.969,358.937-121.245,72.687-254.241,119.936-223.1,156.658,176.366,28.581,284.761,62.96,178.26,109.552l-.05.014" transform="translate(0)" fill="none" stroke="#ffdb0d" stroke-linecap="round" stroke-width="1.5" opacity="0.15"/><path d="M459.152,837.962c-90.126,44.89-102.83,84.637-30.557,113.49,70.1,21.889,53.836,21.73-29.869-5.418-73.131-32.7-75.47-74.971-22.341-98.94C434.2,875.541,442.1,966.246,396.8,1113.47c-74.7,148.555-140.358,241.138-176.812,221.373-5.471-109.329,8.773-233.12,25.637-258.852,21.116,210.436.387,238.379-28.146,47.4-20.356,89.26-43.733,267.969-72.62,353.371-32.4-86.183-75.3-269.384-128.755-397.351-76.013,72.573-102.489,234.8-36.251,48.314,18.633-150.361-13.4-248.55-92.412-284.873-21.588,78.309-112.349,56.4-17.939-7.6,56.627-44.876,12.278-94.274-72.154-152.774-25.486-65.19,40.169-149.8,127.215-256.684,29.882-110.26-13.621-223.36-76.463-309.947-27.091-32.869,8.989.867,80.907,92.4C1.146,294.4,40.24,324.2,44.466,246.92,8.5,6.923-25.552,55.165-4.77,202.882,16.634,100.2,39.4-87.6,59.751-176.9,80.108-75.171,97.083,112.293,114.065,203.084c21.378-81.01,50.855-239.809,94.142-325.2,51.661,58.6,112.022,222.63,165.936,378.7,27.15,66.533,17.27,27.191-28.192-62.546-45.246-88.393-57.2-114.674-8.91-73.974,84.039,93.147,145.8,209.324,130.832,319.794-72.128,104.951-126.2,186.756-92.858,249.533,92.288,55.8,140.764,103.694,84.138,148.57h0" transform="translate(618.638)" fill="none" stroke="#ffdb0d" stroke-linecap="round" stroke-width="1.5" opacity="0.41"/><path d="M438.24,768.683c-94.358,56.331,32.286,75.465-30.63,40.477-80.5-15.21-112.413-16.557-84.64,20.524,58.479,85.712,95.368,216.878,86.8,364.484C360.324,1301.3,294.065,1327.662,236.922,1253.1c-38.481-119.514-53.237-208.08-54.049-181.876,13.752,230.581,12.4,206.733-11.31,26C152.7,1179.27,125.52,1351.3,90.287,1452.14c-35.534-54.165-77.614-221.958-120.181-373.414-31.89-38.472-48.2,41.546-38.8,161.016,28.054,82.3,67.232,66.271,91.948-33.406C7.091,1060.97-52.168,926.478-130.294,834.545c19.02-25.838-70.524-21.827,21.916-77.763C-53.5,713.567-88.117,654.7-167.234,579.9c-38.941-76.68,5.652-169.477,89.141-270.223,45.328-119.719-67.1-113.394-22.99,11.58C-31.467,364.325,30.03,329.177,66.2,201.89c4.226-223.835-35.476-85.09-35.911,24.048C36.142,108.474,49.517-72.319,68.383-154.4c18.867,94.29,42.33,275.845,72.058,382.769C172.741,178.215,214.5,30.99,264.363-82.024c46.658,5.446,87.453,132.733,107.464,297.218-24.288,131.986-94.6-31.606-13.515-85.317,74.539,29.5,106.051,101.976,67.27,192.05C355.92,424.606,322.049,517.564,368.259,593.658c86.392,73.708,124.867,131.8,70.006,175.01l-.026.015" transform="translate(328.982)" fill="none" stroke="#ffdb0d" stroke-linecap="round" stroke-width="1.5" opacity="0.72"/><path d="M1356.59,633.58c-241.124,52.773,74.7,78.334-10.728,81.351-203.411,25.19-344.322,77.784-348.586,169.91,112.171,119.337,239.418,254.145,297.19,365.917-36.909,47.453-155.806,11.978-302.589-94.414-145.094-105.694-250.2-147.1-314.433-73.564-39.862,235.137-84.645,159.24-142.994-10.938-45.866,75.05-110.465,239.4-187.6,352.616-70.915-22.693-139.615-167.755-186.613-330.681-15.239-84.368,14.321-53.471,88.73,47.913,76.1,109.8,129.153,153.86,105.954,115.458C237.045,1151.96,55.42,1018.82-104.5,897.1c-43.5-97.55,56.283-156.223,226.067-186.525,38.758-9.033-330.151-38.548-93.685-91.47C166.869,577.553,99.3,519.177-90.691,447.723c-127.936-68.377-65.767-141.48,126.066-205.711,174.425-41.7,211.5-51.48,119.291-17.982C10.85,281.707-68.677,355.2-40.036,405.948,82.074,389.913,242.82,296.6,384.469,143.54,486.437-1.09,533.763-69.274,546.148-15.4c-22.276,193.168-17.028,44.985,39.976-116.5,45.867,87.058,113.127,261.6,199.526,381.759,85.269-19.394,183.185-147.321,277.705-276.2,67.093-43.113,95.308,35.548,64.025,184.489-118.422,192.039-129.444,146.533,129.083,53.664,139.976-28.1,144.032-12.261,3.215,34.568C1101.461,315.188,1065.4,391.115,1211.023,460.9c207.692,72.42,284.578,131.122,145.57,172.675h0" transform="translate(-202.456)" fill="none" stroke="#ffdb0d" stroke-linecap="round" stroke-width="1.5" opacity="0.59"/><path d="M1331.16,508.442C1129.722,548.3,1050.4,577,1150.263,599c185.678,27.447,287.069,59.3,226.51,106.964-178.443,67.364-354.5,161.677-431.434,280.327,45.544,117.819,159.33,220.285,261.236,273.1,47.154-13.361,9.441-92.169-87.92-202.682-134.028-71.863-265.053-61.491-372.2,49.851C657.141,1268.237,594.31,1393.243,547,1398.5c-39.256-114.709-77.732-272.99-121.534-352.96-43.818,68.195-90.889,223.742-134.276,346.03-35.309,7.126-52.18-109.425-38.775-271.419,60.644-130.328,173.828,74.422,56.661,137.752-159.33-44.19-325.048-140.948-416.2-256.715C-75.8,881.3,60.953,783.47,207.255,711.969c28.455-52.478-97.892-88.2-300.442-118.167-116.789-24.352-46.341-54.214,155.1-94.071,138.109-39.872,90.242-87.851-84.85-138.684C-171.895,315.831-160.28,279.023-3.9,262.4c191.734,2.4,294.32,34.573,269.1,93.014C145.783,409.749,27.024,449.274-22.27,441.242,15.14,367.569,126.789,236.509,265.474,85.808,406.691-19.994,514.769-34.5,586.262,55.931c43.586,132.751,67.926,226.656,89.446,204.176C690.557,122.449,717.1-41.16,760.923-109.4c43.8,79.925,102.8,246.267,170.579,376.376,61.107,10.176,116.474-92.124,148.811-224.572,4.446-82.129-31.457-56.766-105.141,56.585C903.993,251,855.214,377.1,875.207,442.708c106.685-.543,277.411-45.79,442.449-102.163,39.239-71.531-269.665-42.393-97.2,25.681,192.032,53.188,248.847,102.33,110.766,142.2l-.066.015" transform="translate(-210.573)" fill="none" stroke="#ffdb0d" stroke-linecap="round" stroke-width="1.5" opacity="0.36"/><path d="M1304.439,273.8c-194.452,24.86-286.2,50.85-214.008,80.15,173.635,32.53,303.923,73.91,299.005,127.34-134.907,59.19-317.736,128.14-450.5,198.14-32.228,54.7,29.326,85.69,128.893,79.36,96.148-38.37,135.48-100.2,112.335-157.72-74.372-16.54-178.635,21.95-285.967,110.58C783.428,810.84,690.948,872.16,618.568,857.42,550.719,777.93,497.1,680.63,455.247,633.08,387.528,783.49,474.563,607,502.07,595.04c-41.37,53.99-140.8,116.15-291.812,157.79C55.828,764.28-55.362,738.18-66.732,686.98,22.46,619,167.725,550.29,271.942,490.23,246.187,435.05,92.06,391.82-97.708,357.84c-88.349-30.85-5.087-57.68,189.348-82.53,136.878-24.86,107.518-46.55-49.842-62.58-161.841-12.9-196.624-14.88-85.957-2.77,259.994,30.87,261.173,82.56,109.27,33.76C21.633,169.52,55.1,77.89,143.385-1.97,267.478-38.35,392.817-15.77,499.391,58c93.739,79.19,163.088,120.03,215.726,88.18,45.615-92.98,86.8-192.97,128.674-233.09C885.65-39.39,926.2,62.93,959.547,152.04c26.294,24.34,33.12-22.82,11.909-103.79C937.443-22.16,881.035-38.38,821.474,4.03c-23.784,83.39,2.847,174.7,101.2,245.63,150.034,38.92,313.171,43.6,419.324,27.21-188.741-64.99,80.4-39.19-37.563-3.07h0" transform="translate(-187.398)" fill="none" stroke="#ffdb0d" stroke-linecap="round" stroke-width="1.5" opacity="0.45"/><path d="M1273.973,320.01c-186.415,23.3-288.12,54.34-243.357,93.35,154.213,40.33,300.981,90.05,345.972,147.37-79.275,54.78-240.642,108.54-401.346,150.55-100.48,20.87-111.408,14.7-55.866-21.54,135.089-76.42,195.716-85.37,107.447,39.4-85.626,84.92-170.911,124-244.62,93.79-74.818-80.7-133.314-169.98-173.1-212.34-39.783,35.25-58.957,121.77-59.162,205.28-1.315,36.89,11.593,4.49,28.275-77.02-1.895-94.49-24.945-162.07-87.3-183.83C389.159,579.6,251.282,629.9,104.446,680.55c-107.673,39.3-143.9,49.7-84.858,32.94,119.263-38.28,244.961-89.63,295.074-143.23C240.515,513.31,71.124,463.28-98.456,422.45c-60.118-39.73,33.533-71.22,219.93-94.53,134.7-23.3,122.916-37.3-13.659-41.52-165.84-3.12-239.993,4.53-180.745,21.1,157.132,13.22,326.95,26.21,432.724,28.59,10.091-19.14-58.684-62.99-155.22-132.82C113.673,122.09,74.214,44.15,90.69-4.69c62.661-2.51,155,44.16,253.413,121.56,104.868,64.44,195.379,83.6,267.551,37.74C680.889,62.12,734.873-29.12,774.659-64.4c39.783,42.33,63.464,136.32,69.269,226.02,2.835,39.23-15.3,13.42-51.222-54.42C763.238,30.91,736.413-10.99,735.065-2.51c44.8,54.01,141.407,134.33,284.452,214.95,206.647,86.59,164.525,107.65-30.545,85.55-30.067-16.94,66.708-24.27,247.915-20.66,151.941,4.92,171.782,19.38,37.081,42.68h0" transform="translate(-188.369 250.856)" fill="none" stroke="#ffdb0d" stroke-linecap="round" stroke-width="1.5" opacity="0.6"/><path d="M1253.747,411.88c-179.174,21.75-289.978,52.54-272.048,90.87,129.9,37.5,281.938,80.11,367.574,122.92-19.917,35.07-138.309,60.57-296.588,68.32-143.855-10-224.852-41.25-236.4-88.4,48.591-43.12,121.932-72.47,188.121-69.64,54.208,43.47,73.218,120.47,61.184,208.92-32.406,66.15-80.718,83.72-132.5,41.19-56.724-79.72-106.536-160.68-144.472-198.08-37.917,30.67-62.16,108.53-76.986,190.04-19.744,48.17-40.429,37.17-73.746-24.42C584.2,666.14,502.734,586.41,390.064,538c-124.652-8.43-252.445,16.7-350.726,57.87-38.179,47.5-2.145,80.99,102.188,94.12,118.792-4.02,203.173-26.25,195.289-58.88C223.384,590.33,49.774,548.93-94.761,512.02c-32.58-37.93,70.55-68.6,249.706-90.35C287.1,399.92,290.672,388.12,175.4,385.04c-162.814-4.1-267.008-2.26-258.025.84,114.275-5.06,278.641-18.63,421.8-48.12,78.276-46.64,75.747-111.35,17.445-187.35-166.738-87.04-20.388,67.66,85.706,10.43C512.315,70.95,567.866-11.31,605.783-42.01c37.935,37.38,56.456,122.72,57.992,210.85,3.61,50.93-3.767,45.75-11.756-4.45C662.206,91.88,693.338,34.38,760.171,13.54,860.632,33.35,992.75,88.48,1133.588,160.1c108.017,75.66,155.506,138.14,116.74,181.65-203.819,31.48,133.517,42.55,3.419,70.13h0" transform="translate(-183.767 250.434)" fill="none" stroke="#ffdb0d" stroke-linecap="round" stroke-width="1.5" opacity="0.56"/><path d="M1225.809,496.99c-170.407,20.2-286.889,45.44-293.35,73.58,101.358,26.12,246.062,50.99,357.981,69.63,34.313,10.45-27.94,8.02-154.787-10.55C984.1,602.48,857.516,564.93,781.524,526.55c-20.325-21.97,4.4-21.33,50.164,11.43C892.379,600.1,940.039,680.25,965.97,755.74c15.46,45,9.354,43.11-12.017-8.32-26.218-76.78-59.217-149.23-95.056-181.94-35.857,26.38-72.849,95.47-114.227,173.11-46.223,55.95-105.316,63.93-182.9,24.11-88.036-72.76-194.74-153.48-310.671-218.8-139.1-40.36-132.8,30.16,23.487,77.14,89.517,20.83,119.623,25.89,59.04,17.87C195.429,622.79,30.346,599.82-84.857,574.92-92.223,547.93,17,523.25,187.388,503.06c128.8-20.19,146.995-34.95,55.223-46.04C90.716,443.83-32.936,430.07-69.769,411.2c61.454-26.97,195.754-65.28,347.242-117.23,125.8-59.43,190.662-125.73,194.5-188.46C423.81,60.69,354.92,42.2,292.046,58.79c-54.548,44.29-78.885,106.9-75.335,164.87,20.893,25.02,58.116,5.57,101.2-58.16C365.73,80.08,409.877,6.88,445.716-19.51c35.857,32.67,61.685,109.2,81.476,193.79,24.514,59.23,52.507,72.64,93.724,42.44,58.56-60.69,141.936-122.73,251.725-163.83,118.114-11.74,238.482,11.57,333.609,60,43.135,64.84,20.786,131.38-67.686,189.68-114.173,49.69-216.347,85.37-251.529,109.92,63.1,16.36,207.188,28.22,372.891,40.18,105.617,9.94,94.683,24.13-34.118,44.32h0" transform="translate(-182.944 251.31)" fill="none" stroke="#ffdb0d" stroke-linecap="round" stroke-width="1.5" opacity="0.77"/><path d="M1195.6,526.63c-199.486,46.65,89.011,49.36,8.579,12.29-127.706-26.49-266.446-52.26-383.867-67.78-83.531,5.42-122.922,34.34-128.127,88.33,23.884,69.47,57.117,142.54,85.583,199.44,31.3,23.62,46.833,5.34,44.777-51.52-3.9-72.14-23.3-136.02-57.465-164.3-34.167,22.36-81.477,82.73-142.021,154.89C560.681,758.21,483,781.79,392.485,763.49c-87.668-52.98-177.173-124.69-253.72-195.33-47.452-57.25-57.1-90.41-18.349-99.94,72.623,11.93,170.854,35.41,263,60.92,42.416,27.94,16.625,47.37-85.711,56.38-224.154,2.23-312.16-33.04-91.925-60.02,126.826-18.63,158.94-38.36,90.514-60.29-136.358-23.77-270.075-53-344.513-89.87,7.368-41.31,95.7-91.43,228.905-148.09C324.5,173,438.644,122.76,505.458,86.39c17.267-14.91-4.839-3.86-45.843,33.97-79.241,78.73-151.589,133.12-137.106,48.62,18.822-79.35,46.8-143.5,80.964-165.89C437.636,31.35,476.386,99,521.992,178.33c49.532,64.07,112.528,92.97,192.521,83.03,87.2-43.24,189.771-99.59,298.523-149.66,93.667-34.58,164.824-41.41,192.338-22.4-22.033,39.96-95.665,92.48-203.9,147.7-97.625,56.56-155.347,105.73-137.659,145.72,99.477,35.14,252.643,62.81,402.2,85.44,81.624,20.74,56.42,39.83-70.405,58.47h0" transform="translate(-188.436 253.399)" fill="none" stroke="#ffdb0d" stroke-linecap="round" stroke-width="1.5" opacity="0.74"/><path d="M607.89,483.67c-146.62,34.18-146.7,41.76-29.64,18.84,81.94-24.05,24.5-57.32-99-51.74-112.51,76.06-159.51,205.95-168.2,301.22,15.27-23.11,14.25-148.47-19.92-231.41-34.17,73.82-98.27,200.95-172.76,233.18C67.84,665.91,61.51,535.24,129.23,453.2c89.31,1.65-156.07,60.13-16.34,22.79,86.32-34.16-1.88-92.93-119.42-176.01-3.05-82.41,117.74-164.95,240.07-196.81,56.6,84.45.6,66.75,34.87-77.59,34.17,82.91,99.1,222.14,189.06,270.32,111.24-117.05,6.28-112.65-7.91,13.93,142.6,82.14,244.65,139.67,158.33,173.84h0" transform="translate(128.801 256.197)" fill="none" stroke="#ffdb0d" stroke-linecap="round" stroke-width="1.5" opacity="0.75"/><path d="M585.35,392.83c-149.58,32.29,34.23,15.03-46.78,74.05-116.84,98.55-205.83,213.29-255.37,267-26.07-47.74-44.99-165.34-76.06-235.79-51.2,120.64-83.14,133.19,13.23-24.16,41.48-61.06,6.16-74.65-119.94-72.36-114.09,15.37-102.61,12.49,34.92-18.58,86.47-31.05,25.15-87.35-89.09-156.57-49.18-56.13,20.11-91.04,134.79-70.7,102.94,60.61,151.44,139.69,166.09,162.33-7-77.85-3.26-208.15,27.81-269.96,31.06,70.41,86.5,200.62,147.34,271.15,39.2-30.93,39.2-112.72-23.01-170.56-73.97-14.23-110.34,26.09-38.41,85.24,137.01,71.09,210.95,127.83,124.52,158.9l-.04.01" transform="translate(130.792 257.095)" fill="none" stroke="#ffdb0d" stroke-linecap="round" stroke-width="1.5" opacity="0.87"/><path d="M562.89,306.07c-127.12,27.96-170.39,39.78-109.68,48.02,103.8,23.64,151.85,71.61,123.13,155.95-82.62,97.13-175.46,180.61-246.01,194.25-60.04-63.85-99.88-170.11-127.83-228.71-34.68,102.98,16.89,179.83,87.47,44.07-7.93-87.49-85.64-139.93-209.93-167.05-81.2-11.52-49.27-24.93,77.85-52.89,66.78-47.88-122.81-121.69-36.59-66.45,105.54,59.92,188.74,108.65,239,93.81,31.99-89.66,54.52-205.97,82.47-256.49,27.96,58.58,58.71,176.17,75.17,260.53-1.81,6.87-41.36-46.96-110.26-107.44-42.46-47.7-27.03-52.03,71.97-27.23,120.74,40.22,167.98,81.67,83.24,109.63h0" transform="translate(130.018 254.402)" fill="none" stroke="#ffdb0d" stroke-linecap="round" stroke-width="1.5" opacity="0.13"/><path d="M540.35,273.08c-115.43,24.86-172.34,51.26-142.93,87.09,86.69,46.58,157.6,116.08,175.6,202.76-29.74,75.72-92.06,120.61-154.32,101.13-65.73-71.19-113.39-163.42-138.24-210.97-24.85,40.09-24.56,129.97-1.89,204.43,19.19,26.19,42.72-12.62,39.89-85.24C267.88,485.84,170.62,414.35,65.71,365.45c-47.63-38.66-.79-66.76,114.64-91.61,81.29-24.86,68.1-44.12-10.59-48.52-88.81,5.83-119.42,38.53-88.11,92.39,73.49,40.05,155.49,52.51,219.97,8.11,58.2-92.66,97.79-192.61,122.64-232.73,24.85,47.53,32.63,149.83,17.49,239.25-21.41,37.71-64.63,19.18-105.54-23.97,1.26-54.11,58.23-84.82,165.26-88.33,96.91,7.24,120.17,28.19,38.88,53.04h0" transform="translate(129.238 250.106)" fill="none" stroke="#ffdb0d" stroke-linecap="round" stroke-width="1.5" opacity="0.37"/><path d="M517.89,312.72C415.2,334.46,350.4,370.16,351.52,420.05c58.22,52.99,127.98,119.62,172.54,185.3,17.4,43.43-.53,51.56-34.2,9.57-43.78-70.43-81.82-146.94-103.57-184.34-21.75,30.68-25.14,104.1-19.04,175.9-4.02,46.79-20.02,44.33-65.93,5.21C228.26,548.83,135.43,482.91,61.27,429.51,44.21,378.49,100.2,341.9,202.89,320.15c76.04-21.74,81.66-26.59,28.36-13.25-109.68,31.7-97.41,82.37-19.42,9.35,56.65-87.73,98.87-169.97,120.61-200.67,21.75,37.38,20.97,122.7,2,209.08-14.59,57.94-32.08,72.88-29.38,57.95,39.71-37.17,118.86-69.87,216.44-85.17,69.24-12.21,72.43-6.47-3.61,15.28h0" transform="translate(128.472 249.258)" fill="none" stroke="#ffdb0d" stroke-linecap="round" stroke-width="1.5" opacity="0.48"/><path d="M495.35,402.32c-89.05,18.64-155.93,52.87-176.95,97.82,26.05,42.32,76.2,87.18,123.09,120.05,41.23,11.07,57.77-8.33,54.05-60.71-12.16-62.99-31.46-123.11-50.1-151.39-18.64,22.36-34.85,79.03-54.99,141.81-28.58,55.08-74.21,78.71-139.88,71.77-71.31-29.01-141.23-71.41-180.95-112.53,7.36-44.25,66.68-78.32,155.73-96.96,79.07-19.36-30.62,7.34-96.5,18.57-15.22-17.48-3.44-60.89,21.39-129.63,32.87-76.45,62.93-140.67,81.57-163.03,18.64,28.28,24.09,95.96,23.52,172.61,7.47,66.04,24.78,105.21,64.43,118.58,60.39-8.44,140.02-24.22,215.48-34.23,41.5-12.65,29.3-11.37-39.89,7.27h0" transform="translate(127.887 250.448)" fill="none" stroke="#ffdb0d" stroke-linecap="round" stroke-width="1.5" opacity="0.69"/><path d="M472.85,490.58c-137.54,31.07-170.77,88.23-123.39,107.84,76.56-36.61,98.01-142.38,66.95-212.83-31.07,61.79-108.78,167.43-226.05,209-88.1-12.83-80.05-66.3,57.49-97.36,86.47-31.07,37.7-33.85-37.78-61.74-57.78-82.29-47.9-213.11-16.83-274.9,31.06,70.45,77.43,201.4,175.93,278.73,116.19,21.11,190.15,20.19,103.68,51.26h0" transform="translate(129.732 250.028)" fill="none" stroke="#ffdb0d" stroke-linecap="round" stroke-width="1.5" opacity="0.08"/><path d="M450.35,526.99c-115.42,24.85-177.09,39.8-174.76,14.76,43.37-49.04,68.82-131.12,43.97-178.66-24.85,40.09-95.31,119.78-171.25,170.65-34.9,29.34,6.62,17.73,122.04-7.12,81.29-24.86,76.37-58.25,31.99-120.16-61.84-83.44-83.38-183.28-58.52-223.37,24.85,47.54,91.38,149.77,185.8,231.38,76.95,57.62,102.02,87.67,20.73,112.52h0" transform="translate(128.872 244.823)" fill="none" stroke="#ffdb0d" stroke-linecap="round" stroke-width="1.5" opacity="0.44"/><path d="M427.85,490.72c-154.12,37.27-167.56-54.24-204.83-150.13-37.28,86.45-84.29,180.21,69.83,142.94,84.45-37.28,17.84-191.49,55.12-277.94,37.27,95.89,164.33,247.85,79.88,285.13h0" transform="translate(129.364 237.637)" fill="none" stroke="#ffdb0d" stroke-linecap="round" stroke-width="1.5" opacity="0.45"/><path d="M405.35,402.51c-150.62-6.01-220.47-14.67-90-9.87,86.77-74.65,156.62-66,90,9.87h0" transform="translate(133.208 248.277)" fill="none" stroke="#ffdb0d" stroke-linecap="round" stroke-width="1.5" opacity="0.38"/></g></svg>