<svg xmlns="http://www.w3.org/2000/svg" width="197.453" height="270.279" viewBox="0 0 197.453 270.279"><g transform="translate(66.135)"><path d="M257.212,269.843H171.246a22.7,22.7,0,0,1-22.676-22.676V22.676A22.7,22.7,0,0,1,171.246,0h85.966a22.7,22.7,0,0,1,22.676,22.676V247.167A22.7,22.7,0,0,1,257.212,269.843Z" transform="translate(-148.57)" fill="#dadbdc"/><path d="M264.538,270.806H178.446A16.807,16.807,0,0,1,161.66,254.02V29.586A16.807,16.807,0,0,1,178.446,12.8h86.091a16.807,16.807,0,0,1,16.786,16.786V254.02A16.807,16.807,0,0,1,264.538,270.806Z" transform="translate(-155.833 -7.102)" fill="#fff"/><path d="M285.812,31.834H261.467a5.827,5.827,0,0,1,0-11.654h24.345a5.827,5.827,0,1,1,0,11.654Z" transform="translate(-207.978 -11.197)" fill="#dadbdc"/></g><g transform="translate(95.016 82.672)"><path d="M287.246,192.219H216.01c-1.411,0-2.56-1.46-2.56-3.25s1.148-3.25,2.56-3.25h71.237c1.411,0,2.56,1.46,2.56,3.25S288.657,192.219,287.246,192.219Z" transform="translate(-213.45 -185.72)" fill="#dadbdc"/><path d="M287.246,224.569H216.01c-1.411,0-2.56-1.46-2.56-3.25s1.148-3.25,2.56-3.25h71.237c1.411,0,2.56,1.46,2.56,3.25S288.657,224.569,287.246,224.569Z" transform="translate(-213.45 -203.67)" fill="#dadbdc"/><path d="M266.818,256.919H216.01c-1.411,0-2.56-1.46-2.56-3.25s1.148-3.25,2.56-3.25h50.809c1.411,0,2.56,1.46,2.56,3.25S268.23,256.919,266.818,256.919Z" transform="translate(-213.45 -221.619)" fill="#dadbdc"/></g><g transform="translate(101.386 141.823)"><circle cx="30.408" cy="30.408" r="30.408" fill="#2ecc71"/><path d="M277.73,374.564q2.357,4.614,4.714,9.232a1.125,1.125,0,0,0,2.034-.267,42.03,42.03,0,0,1,11.049-18.117c1.033-1-.543-2.569-1.576-1.576a44.391,44.391,0,0,0-11.623,19.1l2.034-.267q-2.357-4.614-4.714-9.232c-.65-1.278-2.573-.151-1.923,1.122h0Z" transform="translate(-255.41 -343.524)" fill="#fff"/></g><g transform="translate(26.758 112.381)"><path d="M102.587,294.054l-7.372,2.515L95.1,285.926l6.708-.076Z" transform="translate(-79.525 -270.986)" fill="#f3a3a6"/><circle cx="7.372" cy="7.372" r="7.372" transform="translate(9.067 3.135)" fill="#f3a3a6"/><path d="M91.175,262.212c-1.233-.022-2.057-1.26-2.551-2.395s-1-2.435-2.146-2.893c-.939-.374-2.56,2.239-3.307,1.558-.779-.712-.067-4.425.743-5.1a5.042,5.042,0,0,1,2.978-.877,30.608,30.608,0,0,1,7.674.53,8.287,8.287,0,0,1,4.3,1.892c1.438,1.411,1.825,3.561,1.95,5.573a11.187,11.187,0,0,1-.948,6.032,4.95,4.95,0,0,1-5.079,2.729,13.212,13.212,0,0,1,.045-3.325,4.667,4.667,0,0,0-.717-3.183,2.047,2.047,0,0,0-2.916-.418" transform="translate(-72.72 -252.458)" fill="#2f2e43"/><path d="M120.58,278.73a3.673,3.673,0,0,1,2.515-.908,2.549,2.549,0,0,1,2.083,1.861,3.282,3.282,0,0,1-.605,2.8,4.594,4.594,0,0,1-2.444,1.58,2.565,2.565,0,0,1-1.683,0,1.714,1.714,0,0,1-.913-2.1" transform="translate(-93.031 -266.524)" fill="#2f2e43"/><g transform="translate(0 20.7)"><path d="M60.231,384.928c-.463,2.426.458,4.63,2.065,4.919s3.281-1.447,3.744-3.873a5.939,5.939,0,0,0-.129-2.916l5.671-38.02-7.639-1.349-2.515,38.563a6.04,6.04,0,0,0-1.2,2.68h0Z" transform="translate(-60.111 -323.779)" fill="#f3a3a6"/><path d="M78.693,298.96l-5.2.058c-3.672.6-4.652,2.573-5.444,6.205-1.215,5.542-2.764,12.927-2.439,13.029.521.169,9.424,4.238,13.929,3.232Z" transform="translate(-63.135 -298.96)" fill="orange"/></g><rect width="6.926" height="9.824" transform="matrix(1, -0.011, 0.011, 1, 15.022, 141.613)" fill="#f3a3a6"/><path d="M70.589,592.113c-.73.009-1.375,0-1.865-.04a8.654,8.654,0,0,1-4.5-2.27,1.252,1.252,0,0,1-.334-1.411h0a1.257,1.257,0,0,1,.8-.73l4.848-1.442,7.812-5.4.089.156a13.68,13.68,0,0,1,1.091,2.381,1.061,1.061,0,0,1-.067.886.887.887,0,0,1-.361.312,3.61,3.61,0,0,0,1.972.65,2.18,2.18,0,0,0,2.426-1.879l.013-.071.058-.04c.948-.628,1.531-.913,1.736-.855.129.036.338.1.97,5.76a5.836,5.836,0,0,1,.214,2.729c-.28,1.362-6.214.957-7.4.864-.036,0-4.469.369-7.51.4h.009Z" transform="translate(-62.154 -434.651)" fill="#2f2e43"/><rect width="6.926" height="9.824" transform="translate(35.742 137.315) rotate(-32.59)" fill="#f3a3a6"/><path d="M132.591,581.177a12.178,12.178,0,0,1-2.1-.169,1.253,1.253,0,0,1-1.028-1.024h0a1.247,1.247,0,0,1,.294-1.042l3.348-3.788,3.77-8.716.16.085a14.032,14.032,0,0,1,2.186,1.442,1.069,1.069,0,0,1,.414.788.82.82,0,0,1-.142.454,3.621,3.621,0,0,0,2.017-.494,2.178,2.178,0,0,0,1.064-2.876l-.027-.067.031-.062c.472-1.033.819-1.585,1.019-1.647.129-.036.338-.1,3.873,4.371a5.8,5.8,0,0,1,1.625,2.2c.481,1.3-4.763,4.1-5.822,4.647a92.8,92.8,0,0,1-7.763,5.266,6.587,6.587,0,0,1-2.929.623l.009.009Z" transform="translate(-98.583 -425.349)" fill="#2f2e43"/><path d="M92.679,385.669l-19.391.214L71.73,403.938,80.17,470.5l9.9-.111-4.385-38.452,16.444,34.579,8.729-6.259-12.9-32.309s4.167-28.316.57-35.318-5.845-6.975-5.845-6.975v.009Z" transform="translate(-66.558 -326.366)" fill="#2f2e43"/><path d="M102.1,338.395l-30.8.343,8.8-39.916,13.421-.151Z" transform="translate(-66.319 -278.099)" fill="orange"/><path d="M131.987,384.079c.516,2.417-.356,4.638-1.954,4.963s-3.312-1.371-3.828-3.788a5.952,5.952,0,0,1,.062-2.92l-6.517-37.886,7.608-1.518,3.37,38.5a6.1,6.1,0,0,1,1.26,2.653h0Z" transform="translate(-93.202 -302.657)" fill="#f3a3a6"/><path d="M109.1,298.728l5.2-.058c3.686.516,4.705,2.471,5.582,6.085,1.335,5.515,3.049,12.86,2.729,12.972-.521.178-9.326,4.443-13.853,3.539l.343-22.538Z" transform="translate(-87.104 -278.099)" fill="orange"/></g><path d="M95.742,605.646a.437.437,0,0,1-.436.436H.436a.436.436,0,0,1,0-.872H95.306a.437.437,0,0,1,.436.436h0Z" transform="translate(0 -335.804)" fill="#3f3d58"/></svg>