<svg xmlns="http://www.w3.org/2000/svg" width="38.971" height="31.664" viewBox="0 0 38.971 31.664"><path d="M15.832,1a3.654,3.654,0,0,0-3.654,3.654V5.871H3.654A3.654,3.654,0,0,0,0,9.525V29.011a3.654,3.654,0,0,0,3.654,3.654H35.318a3.654,3.654,0,0,0,3.654-3.654V9.525a3.654,3.654,0,0,0-3.654-3.654H26.793V4.654A3.654,3.654,0,0,0,23.139,1Zm0,2.436h7.307a1.218,1.218,0,0,1,1.218,1.218V5.871H14.614V4.654A1.218,1.218,0,0,1,15.832,3.436Zm4.594,16.84,16.11-4.294V29.011a1.218,1.218,0,0,1-1.218,1.218H3.654a1.218,1.218,0,0,1-1.218-1.218V15.98l16.11,4.3a3.654,3.654,0,0,0,1.88,0ZM3.654,8.307H35.318a1.218,1.218,0,0,1,1.218,1.218v3.936L19.8,17.923a1.218,1.218,0,0,1-.628,0L2.436,13.461V9.525A1.218,1.218,0,0,1,3.654,8.307Z" transform="translate(0 -1)" fill="#fff"/></svg>