<svg xmlns="http://www.w3.org/2000/svg" viewBox="0 0 800 800"><defs><filter id="a" x="-100%" y="-100%" width="400%" height="400%" filterUnits="objectBoundingBox" primitiveUnits="userSpaceOnUse" color-interpolation-filters="sRGB"><feGaussianBlur stdDeviation="30" x="0%" y="0%" in="SourceGraphic" result="blur"/></filter><filter id="f" x="-100%" y="-100%" width="400%" height="400%" filterUnits="objectBoundingBox" primitiveUnits="userSpaceOnUse" color-interpolation-filters="sRGB"><feGaussianBlur stdDeviation="2" x="0%" y="0%" in="SourceGraphic" result="blur"/></filter><filter id="d" x="-100%" y="-100%" width="400%" height="400%" filterUnits="objectBoundingBox" primitiveUnits="userSpaceOnUse" color-interpolation-filters="sRGB"/><filter id="g" x="-100%" y="-100%" width="400%" height="400%" filterUnits="objectBoundingBox" primitiveUnits="userSpaceOnUse" color-interpolation-filters="sRGB"/><radialGradient id="b" r="93%" cx="20%" cy="20%"><stop offset="70%" stop-color="#ffdb0d" stop-opacity="0"/><stop offset="97%" stop-color="#c7aa00"/></radialGradient><radialGradient id="c" r="65%" cx="28%" cy="20%"><stop offset="0%" stop-color="#ffff56" stop-opacity=".75"/><stop offset="100%" stop-color="#ffdb0d" stop-opacity="0"/></radialGradient><linearGradient id="e" x1="50%" y1="0%" x2="50%" y2="100%"><stop offset="0%" stop-color="#555"/><stop offset="100%" stop-opacity="0"/></linearGradient><linearGradient id="h" x1="50%" y1="0%" x2="50%" y2="100%"><stop offset="0%" stop-color="#ff9667"/><stop offset="100%" stop-color="hsl(3, 100%, 51%)" stop-opacity="0"/></linearGradient></defs><g stroke-linecap="round"><path d="M650 450c0 145.134-104.866 262.788-250 262.788-145.134 0-250-117.654-250-262.788 0-145.134 104.866-262.788 250-262.788 145.134 0 250 117.654 250 262.788z" fill="#c7aa00" opacity=".25" filter="url(#a)"/><circle r="250" cx="400" cy="400" fill="#ffdb0d"/><circle r="250" cx="400" cy="400" fill="url(#b)"/><circle r="250" cx="400" cy="400" fill="url(#c)"/><path d="M282.997 359.25q113 55 74 0" stroke-width="20" stroke="#000" fill="none" filter="url(#d)"/><path d="M282.997 359.25q113 55 74 0" stroke-width="6.667" stroke="url(#e)" fill="none" filter="url(#f)"/><path d="M406.686 362.25q94 51 86 0" stroke-width="20" stroke="#000" fill="none" filter="url(#d)"/><path d="M406.686 362.25q94 51 86 0" stroke-width="6.667" stroke="url(#e)" fill="none" filter="url(#f)"/><path d="M360.707 512.5q129 50 120 0" stroke-width="20" stroke="hsl(3, 100%, 51%)" fill="none" filter="url(#g)" transform="rotate(357 400 400)"/><path d="M360.707 512.5q129 50 120 0" stroke-width="6.667" stroke="url(#h)" fill="none" filter="url(#f)" transform="rotate(357 400 400)"/></g></svg>