<svg xmlns="http://www.w3.org/2000/svg" width="61.167" height="69.906"><g fill="orange"><path d="M18.953 6.947q-6.242 1.72-12.4 3.74a2.1 2.1 0 00-1.433 1.7C2.7 30.553 8.3 43.8 14.969 52.534a46.859 46.859 0 009.992 9.756 26.549 26.549 0 003.9 2.329 9.713 9.713 0 001.28.516 2.4 2.4 0 00.441.109 2.688 2.688 0 00.437-.109 9.5 9.5 0 001.285-.516 27.181 27.181 0 003.9-2.329 46.863 46.863 0 009.996-9.756c6.672-8.725 12.264-21.981 9.844-40.143a2.1 2.1 0 00-1.433-1.7c-2.844-.931-7.646-2.447-12.4-3.736-4.846-1.319-9.311-2.293-11.627-2.293s-6.784.974-11.631 2.289zm-1.162-4.5C22.531 1.158 27.569 0 30.584 0s8.052 1.158 12.793 2.447c4.85 1.311 9.739 2.862 12.614 3.8a6.728 6.728 0 014.561 5.514c2.6 19.56-3.438 34.057-10.77 43.647a51.446 51.446 0 01-11 10.717 31.278 31.278 0 01-4.579 2.731 9.267 9.267 0 01-3.622 1.049 9.287 9.287 0 01-3.622-1.049 31.274 31.274 0 01-4.579-2.731 51.455 51.455 0 01-11-10.717C4.055 45.819-1.988 31.322.616 11.762a6.728 6.728 0 014.561-5.514q6.26-2.053 12.614-3.8z"/><path d="M43.053 22.483a2.185 2.185 0 010 3.093L29.946 38.684a2.185 2.185 0 01-3.093 0l-6.554-6.554a2.187 2.187 0 113.093-3.093l5.007 5.011 11.56-11.565a2.184 2.184 0 013.093 0z"/></g></svg>