<svg xmlns="http://www.w3.org/2000/svg" width="92.9" height="88.823"><path d="M46.8 20.451a28.225 28.225 0 013.7.255 26.856 26.856 0 018.526 50.524v5.388a2.441 2.441 0 01-2.441 2.441h-19.53a2.441 2.441 0 01-2.441-2.441v-5.391A26.857 26.857 0 0146.8 20.451zm7.345 53.723v-4.492a2.442 2.442 0 011.465-2.238 21.973 21.973 0 00-5.777-41.9 21.973 21.973 0 00-11.8 41.9 2.442 2.442 0 011.465 2.238v4.492zm2.442 14.649H37.055a2.442 2.442 0 110-4.883h19.532a2.442 2.442 0 110 4.883zM46.45 0a1.973 1.973 0 00-1.974 1.974v10.6a1.973 1.973 0 001.974 1.974 1.911 1.911 0 001.974-1.974v-10.6A1.973 1.973 0 0046.45 0zm44.476 44.476h-10.6a1.973 1.973 0 00-1.974 1.974 1.911 1.911 0 001.974 1.974h10.6a1.974 1.974 0 100-3.949zM14.548 46.45a1.973 1.973 0 00-1.974-1.974h-10.6A1.973 1.973 0 000 46.45a1.911 1.911 0 001.974 1.974h10.6a1.973 1.973 0 001.974-1.974zM71.805 23.9l7.482-7.482a1.984 1.984 0 00-2.808-2.805L69 21.092a1.984 1.984 0 002.806 2.806zM21.092 69l-7.482 7.482a1.984 1.984 0 002.806 2.806l7.482-7.482a2.075 2.075 0 000-2.806 1.889 1.889 0 00-2.806 0zm-4.674-55.387a1.984 1.984 0 10-2.806 2.806l7.48 7.481a1.986 1.986 0 002.808-2.808zM71.805 69a1.984 1.984 0 00-2.806 2.806l7.48 7.481a1.986 1.986 0 002.808-2.808z" fill="orange"/></svg>