<svg xmlns="http://www.w3.org/2000/svg" width="74.562" height="69.906"><path d="M13.35 66.876a2.474 2.474 0 003.476 2.763l20.458-10.512L57.736 69.64a2.472 2.472 0 003.476-2.759l-3.867-22.042 16.412-15.638a2.588 2.588 0 00-1.314-4.427L49.619 21.53 39.441 1.366a2.391 2.391 0 00-4.32 0L24.944 21.534 2.119 24.778a2.592 2.592 0 00-1.32 4.423l16.418 15.643-3.867 22.042zm22.857-12.894L19.03 62.808l3.234-18.44a2.633 2.633 0 00-.76-2.353L7.963 29.107l18.882-2.684a2.447 2.447 0 001.831-1.342l8.6-17.046 8.605 17.046a2.447 2.447 0 001.831 1.342l18.887 2.678-13.546 12.91a2.633 2.633 0 00-.76 2.358l3.234 18.44-17.176-8.827a2.344 2.344 0 00-2.148 0z" fill="orange"/></svg>