<svg xmlns="http://www.w3.org/2000/svg" width="1358.276" height="500"><g data-name="Logo AriWeb"><path d="M19.355 394.293a20.6 20.6 0 01-8.441-32.945L273.163 62.11a20.607 20.607 0 0122.537-5.783l.007.002a20.6 20.6 0 0113.551 18.905l8.821 397.9a20.6 20.6 0 01-38.3 11.005l-86.737-145.554-159.84 55.798a20.581 20.581 0 01-13.847-.09zM209.18 294.226a20.565 20.565 0 0110.653 8.814l55.312 92.823-5.91-266.745L93.44 329.706l101.9-35.571a20.569 20.569 0 0113.838.09z" fill="orange"/><path d="M445.284 196.562a106.16 106.16 0 00-106.092 106.093v84.959a21.2 21.2 0 0021.134 21.134c11.412 0 20.711-9.722 20.711-21.134v-84.959a64.219 64.219 0 0164.247-64.248 21.2 21.2 0 0021.134-21.134 20.839 20.839 0 00-21.134-20.711zm67.629 212.186a20.839 20.839 0 0020.712-21.134v-170.34a20.924 20.924 0 00-41.845 0v170.34a20.929 20.929 0 0021.133 21.134zm0-254.454a21.122 21.122 0 0014.794-5.918 21.121 21.121 0 005.918-14.794 21.121 21.121 0 00-5.918-14.794 21.136 21.136 0 00-35.928 14.794 21.525 21.525 0 006.34 14.794 21.122 21.122 0 0014.794 5.918zm401.128-41.845a20.779 20.779 0 00-27.051 12.258l-78.2 203.732-46.495-118.774a20.049 20.049 0 00-19.866-13.526c-8.453-.423-16.484 5.072-19.866 13.526l-46.922 118.774-75.655-202.042a21 21 0 00-39.31 14.794l94.681 253.186a21.563 21.563 0 0019.866 13.945h.423c8.454 0 16.485-5.495 19.866-13.948l46.918-118.773 46.071 118.776a21.563 21.563 0 0019.866 13.945h.423c8.454 0 16.485-5.495 19.866-13.948L926.295 139.5a20.628 20.628 0 00-12.254-27.051zm100.172 83.691a106.093 106.093 0 000 212.186c15.639 0 37.2.423 65.093-18.175 9.722-6.34 15.216-17.33 10.144-27.9-5.072-10.144-18.175-16.062-27.9-9.722-20.289 13.1-37.618 13.948-47.34 13.948-28.32 0-51.99-18.175-60.866-43.536h145.828a20.839 20.839 0 0021.134-20.711c0-68.894-54.949-106.09-106.093-106.09zm0 41.845c25.361 0 52.412 13.526 61.289 43.113H953.347a64.62 64.62 0 0160.866-43.113zm237.969-42.691a105.9 105.9 0 00-64.247 21.557V111.603a20.745 20.745 0 00-20.712-20.711 20.839 20.839 0 00-21.134 20.711v189.784c0 58.33 47.763 106.093 106.093 106.093a106.093 106.093 0 100-212.186zm0 170.34a64.219 64.219 0 01-64.247-64.248v-.423c0-35.082 28.742-63.825 64.247-63.825a64.25 64.25 0 110 128.5z" fill="#fff"/></g></svg>