<svg xmlns="http://www.w3.org/2000/svg" width="206" height="187.039"><path d="M101.829 172.993a7.64 7.64 0 002.692-.585 6.944 6.944 0 002.458-1.522l78.889-79.123a20.03 20.03 0 004.565-6.945 21.339 21.339 0 001.522-7.8 22.148 22.148 0 00-1.522-7.959 19.863 19.863 0 00-4.565-7.023L143.732 19.9a19.863 19.863 0 00-7.023-4.565 22.147 22.147 0 00-7.959-1.522 21.338 21.338 0 00-7.8 1.522A20.03 20.03 0 00114 19.9l-4.214 4.214 18.961 19.2a36.88 36.88 0 015.384 7.608 19.618 19.618 0 012.341 9.481q0 8.9-6.906 15.684a21.923 21.923 0 01-15.8 6.789 21.387 21.387 0 01-16.781-6.751L79.823 58.999l-42.37 42.37a6.772 6.772 0 00-1.639 2.464 8.085 8.085 0 00-.468 2.772 6.8 6.8 0 006.945 6.937 5.7 5.7 0 002.77-.7 9.659 9.659 0 002.224-1.639l32.3-32.3 9.832 9.832-32.07 32.07a6.57 6.57 0 00-1.639 2.575 8.837 8.837 0 00-.468 2.809 7.2 7.2 0 007.023 7.023 6.434 6.434 0 002.692-.585 7.5 7.5 0 002.224-1.522l32.3-32.3 9.832 9.832-32.07 32.07a7 7 0 00-1.522 2.419 8.025 8.025 0 00-.585 2.965 7.2 7.2 0 007.023 7.023 6.873 6.873 0 002.575-.468 7.133 7.133 0 002.341-1.639l32.3-32.3 9.832 9.832-32.3 32.3a6.57 6.57 0 00-1.639 2.575 8.2 8.2 0 00-.468 2.575 6.479 6.479 0 007.023 7.023zm.015 14.045a19.621 19.621 0 01-13.826-5.735 23.321 23.321 0 01-7.257-14.19 22.954 22.954 0 01-19.9-19.87 22.233 22.233 0 01-13.226-6.672 23.813 23.813 0 01-6.435-13.226 23.52 23.52 0 01-14.28-7.023 19.562 19.562 0 01-5.62-14.045 21.588 21.588 0 011.574-7.971 20.99 20.99 0 014.512-7.011l52.436-52.436 25.75 25.75a14.87 14.87 0 004.057 2.926 9.986 9.986 0 004.37 1.053 9.32 9.32 0 008.427-8.463A7.54 7.54 0 00121.61 57a13.163 13.163 0 00-2.692-3.628L85.443 19.9a19.863 19.863 0 00-7.023-4.565 22.147 22.147 0 00-7.959-1.522 21.338 21.338 0 00-7.8 1.522 20.116 20.116 0 00-6.931 4.531l-35.6 35.615a18.674 18.674 0 00-4.565 6.906 28.871 28.871 0 00-1.522 8.193 18.733 18.733 0 001.756 8.9 37.649 37.649 0 004.8 7.842l-10.065 10.06a41.051 41.051 0 01-7.608-12.407A39.125 39.125 0 010 70.227a34.547 34.547 0 012.692-13.46A35 35 0 0110.3 45.414l35.348-35.348A32.709 32.709 0 0157.3 2.458 37.465 37.465 0 0170.647 0a36.914 36.914 0 0113.275 2.458 32.854 32.854 0 0111.587 7.608l4.214 4.214 4.214-4.214a32.709 32.709 0 0111.656-7.608A37.465 37.465 0 01128.936 0a36.914 36.914 0 0113.275 2.458 32.854 32.854 0 0111.587 7.608l41.9 41.9a33.989 33.989 0 017.725 11.712A36.25 36.25 0 01206 77.024a35.292 35.292 0 01-2.575 13.218 34.3 34.3 0 01-7.725 11.587l-78.889 78.889a21.632 21.632 0 01-6.911 4.682 20.453 20.453 0 01-8.056 1.639zM78.889 59.225z" fill="#7509b3"/></svg>