<svg xmlns="http://www.w3.org/2000/svg" width="77.673" height="69.906"><path d="M34.953 69.906V64.08h33.011V34.564a25.282 25.282 0 00-2.427-10.825 31.118 31.118 0 00-6.505-9.175 32.392 32.392 0 00-9.321-6.36 26.051 26.051 0 00-21.748 0 32.389 32.389 0 00-9.321 6.36 31.113 31.113 0 00-6.5 9.175 25.281 25.281 0 00-2.427 10.825v23.691H7.767A7.791 7.791 0 010 50.487V42.72a7.236 7.236 0 011.068-3.932 8.538 8.538 0 012.816-2.767l.291-5.146A35.233 35.233 0 018.2 18.058a34.142 34.142 0 017.864-9.709 35.359 35.359 0 0110.583-6.165 35.345 35.345 0 0124.467 0 34.194 34.194 0 0110.535 6.214 35.442 35.442 0 017.816 9.709 34.677 34.677 0 014.03 12.671l.291 5.048a7.064 7.064 0 013.884 6.311v8.933a6.813 6.813 0 01-1.068 3.786 7.051 7.051 0 01-2.816 2.524v6.7a5.843 5.843 0 01-5.825 5.826zm-7.767-28.157a2.794 2.794 0 01-2.039-.873 2.85 2.85 0 01-.874-2.088 2.692 2.692 0 01.874-2.039 2.935 2.935 0 012.088-.825 2.748 2.748 0 012.039.837 2.961 2.961 0 01-.012 4.114 2.759 2.759 0 01-2.076.874zm23.3 0a2.794 2.794 0 01-2.039-.873 2.85 2.85 0 01-.874-2.088 2.692 2.692 0 01.874-2.039 2.935 2.935 0 012.087-.825 2.749 2.749 0 012.039.837 2.961 2.961 0 01-.012 4.114 2.758 2.758 0 01-2.074.874zM15.632 36.7a22.27 22.27 0 011.6-10.389 24.031 24.031 0 015.34-7.913 24.129 24.129 0 0116.457-6.748 21.023 21.023 0 0114.855 5.584 23.629 23.629 0 017.379 13.932 28.075 28.075 0 01-16.069-4.9 32.312 32.312 0 01-10.729-12.477 31.009 31.009 0 01-6.554 13.933A30.221 30.221 0 0115.632 36.7z" fill="orange"/></svg>