<svg xmlns="http://www.w3.org/2000/svg" width="68.639" height="16.761"><path d="M25.665 3.748h-3.8a.528.528 0 00-.522.445l-1.536 9.74a.317.317 0 00.313.365h1.813a.528.528 0 00.522-.446l.414-2.627a.528.528 0 01.521-.446h1.2c2.5 0 3.946-1.211 4.323-3.61a2.926 2.926 0 00-.484-2.452 3.524 3.524 0 00-2.769-.97zm.438 3.557c-.208 1.363-1.249 1.363-2.256 1.363h-.573l.4-2.545a.317.317 0 01.313-.267h.263c.686 0 1.333 0 1.667.391a1.266 1.266 0 01.184 1.059zm10.916-.044H35.2a.317.317 0 00-.313.267l-.081.509-.127-.184a2.589 2.589 0 00-2.148-.763 4.183 4.183 0 00-4.061 3.658 3.433 3.433 0 00.675 2.794 2.846 2.846 0 002.291.925 3.48 3.48 0 002.518-1.041l-.081.505a.317.317 0 00.312.367h1.638a.528.528 0 00.522-.446l.983-6.225a.315.315 0 00-.312-.365zm-2.535 3.538a2.027 2.027 0 01-2.052 1.737 1.409 1.409 0 01-1.507-1.768 2.036 2.036 0 012.038-1.751 1.534 1.534 0 011.213.5 1.574 1.574 0 01.308 1.282zm12.223-3.54h-1.829a.53.53 0 00-.437.232l-2.521 3.713-1.069-3.568a.529.529 0 00-.507-.377h-1.799a.317.317 0 00-.3.419l2.013 5.908-1.893 2.672a.317.317 0 00.258.5h1.826a.527.527 0 00.434-.227l6.079-8.775a.317.317 0 00-.26-.5z" fill="#253b80"/><path d="M52.757 3.749h-3.8a.528.528 0 00-.521.445l-1.536 9.74a.316.316 0 00.312.365h1.949a.369.369 0 00.364-.312l.436-2.761a.528.528 0 01.521-.446h1.2c2.5 0 3.946-1.211 4.324-3.61a2.924 2.924 0 00-.485-2.452 3.521 3.521 0 00-2.768-.97zm.438 3.557c-.207 1.363-1.249 1.363-2.256 1.363h-.573l.4-2.545a.315.315 0 01.312-.267h.263c.685 0 1.333 0 1.667.391a1.266 1.266 0 01.184 1.059zm10.915-.044h-1.816a.315.315 0 00-.312.267l-.081.509-.128-.184a2.588 2.588 0 00-2.148-.763 4.182 4.182 0 00-4.06 3.658 3.435 3.435 0 00.677 2.794 2.847 2.847 0 002.291.925 3.48 3.48 0 002.518-1.041l-.081.505a.317.317 0 00.313.367h1.638a.528.528 0 00.521-.446l.984-6.225a.317.317 0 00-.314-.365zM61.576 10.8a2.026 2.026 0 01-2.052 1.737 1.409 1.409 0 01-1.507-1.767 2.037 2.037 0 012.04-1.75 1.534 1.534 0 011.213.5 1.566 1.566 0 01.306 1.28zm4.68-6.786l-1.559 9.918a.316.316 0 00.312.365h1.567a.527.527 0 00.522-.446l1.537-9.739a.317.317 0 00-.312-.366h-1.755a.317.317 0 00-.312.268z" fill="#179bd7"/><path d="M4.035 16.192l.293-1.847-.647-.015H.589L2.736.718A.176.176 0 012.91.569h5.21c1.73 0 2.923.36 3.546 1.07a2.44 2.44 0 01.568 1.065 3.844 3.844 0 010 1.468l-.006.043v.375l.3.166a2.049 2.049 0 01.591.451 2.1 2.1 0 01.48 1.076 4.553 4.553 0 01-.071 1.562 5.5 5.5 0 01-.64 1.768 3.636 3.636 0 01-1.014 1.111 4.112 4.112 0 01-1.365.616 6.808 6.808 0 01-1.706.2h-.406a1.219 1.219 0 00-1.206 1.029l-.031.166-.513 3.252-.023.119a.1.1 0 01-.032.069.086.086 0 01-.053.019z" fill="#253b80"/><path d="M12.801 4.258q-.023.149-.053.305c-.687 3.527-3.037 4.746-6.039 4.746H5.18a.742.742 0 00-.734.629l-.782 4.963-.222 1.407a.391.391 0 00.386.452h2.711a.652.652 0 00.644-.55l.027-.138.51-3.239.033-.178a.652.652 0 01.644-.551h.405c2.626 0 4.683-1.066 5.283-4.152a3.535 3.535 0 00-.543-3.122 2.592 2.592 0 00-.742-.572z" fill="#179bd7"/><path d="M12.082 3.971a5.419 5.419 0 00-.668-.148 8.489 8.489 0 00-1.347-.1H5.983a.651.651 0 00-.644.551l-.869 5.5-.029.164a.742.742 0 01.734-.629h1.528c3 0 5.352-1.219 6.039-4.746.021-.1.038-.206.053-.305a3.662 3.662 0 00-.559-.24l-.154-.048z" fill="#222d65"/><path d="M5.34 4.276a.649.649 0 01.644-.55h4.083a8.489 8.489 0 011.347.1 5.419 5.419 0 01.823.2 3.717 3.717 0 01.565.238 3.331 3.331 0 00-.706-2.995C11.318.379 9.916 0 8.121 0h-5.21a.745.745 0 00-.736.629L.006 14.384a.448.448 0 00.442.518h3.215l.808-5.124z" fill="#253b80"/></svg>