<svg xmlns="http://www.w3.org/2000/svg" width="44.509" height="33.382"><path d="M41.727 33.381a2.724 2.724 0 002.782-2.781c0-2.782-2.782-11.127-13.909-11.127S16.691 27.818 16.691 30.6a2.724 2.724 0 002.782 2.782zM19.534 30.6l-.061-.011a8.537 8.537 0 012.114-4.789c1.536-1.8 4.234-3.55 9.013-3.55s7.475 1.753 9.013 3.55a8.565 8.565 0 012.114 4.785l-.022.006-.039.006zM30.6 13.909a5.564 5.564 0 10-5.564-5.564 5.564 5.564 0 005.564 5.564zm8.345-5.564A8.345 8.345 0 1130.6 0a8.345 8.345 0 018.345 8.345zM19.294 20.251a16.357 16.357 0 00-3.422-.687q-.979-.093-1.964-.092C2.782 19.473 0 27.818 0 30.6a2.458 2.458 0 002.782 2.782H14.51a6.226 6.226 0 01-.6-2.782 12.766 12.766 0 013.032-8.078 14.719 14.719 0 012.352-2.271zm-5.608 2a15.28 15.28 0 00-2.559 8.349H2.782A8.536 8.536 0 014.9 25.8c1.516-1.769 4.15-3.494 8.79-3.547zM4.173 9.736a8.345 8.345 0 118.345 8.345 8.345 8.345 0 01-8.345-8.345zm8.345-5.564a5.564 5.564 0 105.564 5.564 5.564 5.564 0 00-5.564-5.563z" fill="#fff"/></svg>