<svg xmlns="http://www.w3.org/2000/svg" width="93.333" height="70"><path d="M18.153 9.6A8.75 8.75 0 0126.862 0h13.971a2.917 2.917 0 012.917 2.917v2.228c0 4.06-2.9 6.9-5.087 8.569a2.677 2.677 0 00-.671.688.659.659 0 00-.07.146l-.006.035v.017l.017.058a1.158 1.158 0 00.21.309 5.017 5.017 0 001.576 1.133 16.084 16.084 0 006.948 1.4 15.959 15.959 0 006.942-1.4 5.017 5.017 0 001.581-1.132 1.242 1.242 0 00.227-.367v-.053a.653.653 0 00-.07-.146 2.678 2.678 0 00-.671-.688c-2.187-1.674-5.087-4.509-5.087-8.569V2.917A2.917 2.917 0 0152.5 0h13.971a8.75 8.75 0 018.709 9.6l-1.418 16.65h1.383c1.137 0 2.45-.858 3.937-2.8a7.017 7.017 0 015.5-3.033c3.313 0 5.524 2.608 6.732 5.028A21.766 21.766 0 0193.333 35a21.766 21.766 0 01-2.018 9.555c-1.208 2.421-3.418 5.028-6.732 5.028a7.017 7.017 0 01-5.5-3.033c-1.488-1.943-2.8-2.8-3.937-2.8h-1.384L75.18 60.4a8.75 8.75 0 01-8.709 9.6H52.5a2.917 2.917 0 01-2.917-2.917v-2.228c0-4.06 2.9-6.9 5.087-8.569a2.678 2.678 0 00.671-.688.659.659 0 00.07-.146l.006-.035V55.4a1.248 1.248 0 00-.227-.373 5.011 5.011 0 00-1.576-1.127 16.084 16.084 0 00-6.947-1.4 15.979 15.979 0 00-6.942 1.4 5.011 5.011 0 00-1.581 1.132 1.249 1.249 0 00-.227.368v.017l.006.035a.659.659 0 00.07.146 2.649 2.649 0 00.671.688c2.188 1.674 5.087 4.509 5.087 8.569v2.228A2.917 2.917 0 0140.833 70H26.862a8.75 8.75 0 01-8.709-9.6l1.424-16.65h-1.389c-1.138 0-2.45.857-3.938 2.8a7.017 7.017 0 01-5.5 3.033c-3.313 0-5.524-2.607-6.732-5.028A21.766 21.766 0 010 35a21.766 21.766 0 012.018-9.555c1.207-2.421 3.418-5.028 6.732-5.028a7.017 7.017 0 015.5 3.033c1.488 1.943 2.8 2.8 3.938 2.8h1.388zm8.709-3.763a2.917 2.917 0 00-2.9 3.208l.006.041 1.692 19.833a2.917 2.917 0 01-2.9 3.168h-4.572c-4.06 0-6.9-2.9-8.569-5.087a2.678 2.678 0 00-.688-.671.653.653 0 00-.146-.07l-.035-.009h-.017a1.243 1.243 0 00-.373.227 5.017 5.017 0 00-1.126 1.575A16.084 16.084 0 005.833 35a15.979 15.979 0 001.4 6.942 5.035 5.035 0 001.132 1.581 1.242 1.242 0 00.367.227h.018l.035-.006a.653.653 0 00.146-.07A2.678 2.678 0 009.619 43c1.674-2.187 4.509-5.087 8.569-5.087h4.562a2.917 2.917 0 012.905 3.162l-1.692 19.88a2.917 2.917 0 002.9 3.208h10.955a7.019 7.019 0 00-2.7-3.249 7.017 7.017 0 01-3.033-5.5c0-3.313 2.607-5.524 5.028-6.732a21.766 21.766 0 019.555-2.018 21.766 21.766 0 019.555 2.018c2.421 1.207 5.028 3.418 5.028 6.732a7.017 7.017 0 01-3.033 5.5 6.991 6.991 0 00-2.7 3.249h10.953a2.917 2.917 0 002.9-3.208l-.006-.041-1.687-19.83a2.917 2.917 0 012.9-3.167h4.562c4.06 0 6.9 2.9 8.569 5.087a2.648 2.648 0 00.688.671.906.906 0 00.146.07.117.117 0 00.035.006h.022a1.248 1.248 0 00.373-.227 5.017 5.017 0 001.127-1.577A16.045 16.045 0 0087.5 35a15.959 15.959 0 00-1.4-6.942 5.017 5.017 0 00-1.132-1.581 1.254 1.254 0 00-.367-.228h-.018l-.035.006a.659.659 0 00-.146.07 2.677 2.677 0 00-.688.671c-1.674 2.187-4.509 5.087-8.569 5.087h-4.562a2.917 2.917 0 01-2.9-3.168L69.37 9.042a2.917 2.917 0 00-2.9-3.208H55.516a7.019 7.019 0 002.7 3.249 7.017 7.017 0 013.033 5.5c0 3.313-2.607 5.524-5.028 6.732a21.766 21.766 0 01-9.555 2.018 21.766 21.766 0 01-9.555-2.018c-2.421-1.208-5.028-3.418-5.028-6.732a7.017 7.017 0 013.033-5.5 6.991 6.991 0 002.7-3.249z" fill="orange"/></svg>