<svg xmlns="http://www.w3.org/2000/svg" width="203.485" height="183.133"><path d="M20.348 0A20.348 20.348 0 000 20.348v49.69a20.348 20.348 0 0020.348 20.348h28.243a184.891 184.891 0 01-1.262 21.447 71.4 71.4 0 01-6.308 20.185 37.5 37.5 0 01-11.375 13.9q-6.929 5.677-17.662 5.677v31.54q17.672 0 30.929-7.569a67.6 67.6 0 0022.078-20.185 100.113 100.113 0 0012.616-29.668 156.925 156.925 0 003.785-35.324V20.348A20.348 20.348 0 0061.044 0zm122.089 0a20.348 20.348 0 00-20.348 20.348v49.69a20.348 20.348 0 0020.348 20.348h28.243a184.891 184.891 0 01-1.262 21.447 71.4 71.4 0 01-6.308 20.185 37.5 37.5 0 01-11.375 13.9q-6.929 5.677-17.662 5.677v31.54q17.672 0 30.929-7.569a67.6 67.6 0 0022.078-20.185 100.111 100.111 0 0012.62-29.67 156.925 156.925 0 003.785-35.324V20.348A20.348 20.348 0 00183.133 0z" fill="#ab19ff"/></svg>