<svg xmlns="http://www.w3.org/2000/svg" width="1865.42" height="1601.58"><g fill="none" stroke="#ffdb0d" stroke-linecap="round" stroke-width="1.5"><path d="M804.413 74.826c26.708 110.055 49.92 187.715 70.2 194.922 20.956-65.41 40.371-166.463 59.841-251.2 22.332-28.662 47.554 14.307 78.073 108.33 36.477 105.525 81.169 178.974 135.465 195.076 60.474-43.146 129.094-121.318 202.984-199.168 71.055-48.427 137.432-45.716 191.7 6.6 35.032 87.019 47.155 182.589 33.12 261.818-34.62 47-86.233 54.4-143.776 28.638-45.173-49.474-68.015-103.37-56.388-146.542 50.251-25.391 133.566-24.178 235.691 1.95 97.047 47.402 167.649 108.626 192.298 175.176-26.35 69.026-96.084 131.76-186.224 185.194-75.156 45.68-108.977 80.918-83.494 107.771 81.045 20.194 192.4 35.762 295.312 49.486 56.291 10.905 44.155 23.024-33 37.973-108.413 14.367-204.924 32.8-246.836 55.9 33.478 23.1 125.214 50.282 234.384 80.894 83.013 30.029 103.583 62.234 54.888 94.88-98.974 29.826-211.474 57.042-298.05 78.73-33.436 15.044-6.976 20.812 63.845 15.151 90.03-13.415 163.782-37.129 196.751-68.228-17.3-28.638-82.159-53.053-176.441-64.863-102.86 9.45-190.03 42.611-246.03 101.036-18.08 76.2-.729 161.8 40.908 241.553 56.346 56.015 109.225 77.445 147 57.7 18.6-51.96 11.462-121.822-18.947-184.789-50.237-28.281-113.848-8.61-183.431 60.415-73.587 98.447-142.977 195.43-204.965 255.5-56.484.82-103.583-57.6-142.4-150.086-33.023-80.99-60.419-112.933-84.5-75.364-21.19 93.648-41.857 201.5-63.639 271.475-21.08-2.64-44.692-77.957-71.4-188.012-26.726-84.51-55.926-99.983-86.886-41.507-30.258 102.016-60.846 192.614-90.058 226.878-26.309-37.545-48.393-130.38-63.859-236.356-9.646-75.542-10.017-91.7.165-48.582 15.686 81.536 39.931 162.145 69.652 208.182 25.717-5.435 46.742-62.994 55.81-152.773-10.76-96.891-43.357-172.778-100.185-211.429-76 3.373-165.557 40.519-256.908 94.582-102 77.267-87.691 77.267 16.058-2.343 66.46-71.713 105.441-144.449 98.933-210.762-56.773-58.4-152.293-103.324-261.9-135.494-90.4-21.074-134.281-33.134-115.953-39.995 71.5-1.213 171.24-2.141 259.894-5.316 38.417-1.748 10.017-7.936-78.252-19.457C129.409 826.977 34.949 809.863 1.43 786.784c41.885-23.1 141.079-51.614 254.776-85.188 82.462-33.466 102.5-71.594 56.539-113.389-92.589-40.376-191.192-82.227-257.184-122.913-10.43-35.036 40.77-64 135.492-82.952 109.734-7.849 201.25-1.962 251.418 18.517-.784 28.4-45.476 64.339-114.7 100.469-74.316 23.654-127.883 30.053-146.6 10.858 19.89-47.1 76.071-119.06 156.25-206.46 92.534-84.343 180.844-150.312 253.7-180.972 52.26 11.382 79.917 61.545 86.067 134.388-13.067 65.744-36.876 100.934-64.052 85.807-30.024-66.635-53.5-166.047-67.684-264.518-7.994-60.07-5.242-58.964 6.742 3.533 17.956 92.942 42.215 174.763 70.271 203.425 30.918-43.146 62.772-140.525 93.855-247.115 31.758-63.068 61.355-49.973 88.076 34.513l.014.048" opacity=".68"/><path d="M776.511 98.092c25.874 106.434 52.61 184.753 80.634 199.358 28.692-54.566 59.965-149.1 94.959-238.182 37.284-45.017 80.037-24.128 129.231 52.737 52.178 102.707 110.756 191.535 174.58 236.135 63.019-11.855 126.358-69.647 185.351-146.87 48.028-69.492 82.8-103.036 99.151-90.034-2.707 56.237-25.846 140.4-66.92 230.379-72.333 102.009-140.835 105.729-82.217 40.268 78.857-46.475 175.3-78.932 271.4-91.994 74.1 6.334 110.769 32.8 99.887 74.288-52.746 53.621-133.566 112.322-216.986 170.831-54.8 58.891-62.325 111.939-14.1 158.091 92.489 42.34 202.064 78.057 292.831 108.486 40.768 27.748 16.6 52.379-64.921 75.336-105.8 22.192-197.094 44.156-236.35 66.432 31.038 22.276 117.418 44.335 223.4 65.524 86.6 20.447 118.709 38.551 85.728 52.821-85.77 11.58-194.9 17.125-291.4 15.2-55.287-5.736-55.412-19.229-6.441-39.508 81.009-19.909 163.433-40.963 221.081-58.022 17.754-4.9-12.174 4.135-81.3 32.122-93.868 47.398-191.288 113.017-273.758 191.354-55.954 78.2-78.3 147.025-69.918 193.022 34.466 13.922 81.731-7 129.717-58.341 56.5-93.356 49.541-118.332-10.4-1.4-56.287 97.084-117.946 173.029-180.2 201.221-63.81-28.274-123.012-102.594-176.19-192.748-50.582-64.292-94.806-74.546-133.409-20.928-36.451 97.671-68.9 198.763-98.416 257.733-28.858-10.194-56.037-86.258-81.911-192.688-25.874-82.685-49.832-102.272-71.375-52.259-45.987 160.936-47.847-71.989-22.251-79.315 17.421 62.405 35.355 143.464 49.152 210.625 2.151 30.569-8.453 11.078-36.521-51.53-46.727-89.21-111.842-180.219-192.046-251.659-85.007-39.277-167.792-41.683-236.169-14.245-42.293 48.578-52.262 100.623-26.874 142.628 51.929 25.992 120.528 27.546 187.448 5.879 42.2-41.815 47.056-97.682 6.246-160-80.689-66.34-184.213-128.445-284.183-183.023-67.947-48.614-84.687-87.777-44.016-118.87 81.886-25.108 178.661-45.066 254.45-62.3 23.028-14.42-16.671-28.965-108.364-45.225-111.089-15.619-200.107-34.286-231.186-56.549 39.223-22.276 133.114-47.646 244.036-75.419 86.658-27.116 118.473-55.33 87.713-82.912-80.773-24.773-177.981-46.081-255.894-61.389-33.633-9.323-9.286-9.72 64.463.3 102.385 15.977 204.3 40.428 280.1 70.2 33.98 25.753 22.39 46.12-24.75 53.609-69.124-12.677-136.766-47.393-185.082-105.244-19.905-73.891-3.97-156.511 43.614-234.3 72.319-56.633 156.965-82.039 241.749-69.061 78.094 45.148 139.767 111.341 182.353 177.379 23.542 39.412 30.01 37.321 24.472-13.122-16.5-87.022-36.118-186.246-54.3-264.976-18.975-30.5-31.607-2-36.854 74.81.333 123.112 37.437 59.4 68.322-90.25 22.376-54.422 46.765-37.094 72.639 45.591h0" opacity=".8"/><path d="M847.7 120.41c25.032 102.759 54.364 181.793 88.01 203.885 33.969-43.114 72.784-129.406 116.558-220.138 44.376-58.972 93.655-60.092 147.052-3.988 52.333 92.825 106.29 188.965 159.015 256.8 46.267 20.29 85.657-8.841 113.924-71.682 14.932-75.334 14.176-134.389-3.628-158.824-65.668 72.558-150.835 239.1-184.341 366.422 75.838 20.578 245.008-44.364 413.38-117.5 42.023-26.825 43.031-37.444 1.947-31.831-69.45 19.749-150.54 52.028-218.688 92.4-30.341 47.548-12.061 96.861 55.036 144.805 99.1 48.917 202.985 93.653 279.747 133.453 25.4 38.959-9.637 73.063-94.356 102.591-102.648 29.108-188.669 54.359-225.341 75.814 28.674 21.456 109.68 38.621 211.95 51.308 89.019 12.265 131.392 19.353 113.826 20.867-70.949.66-172.911-4.324-274.382-14.308-72.938-9.01-98.6-20.206-74.983-30.562 63.791-3.2 144.069.78 216.208 16.277 46.52 29.625 52.137 74.445 16.305 134.354-161.838 139.259-335.328 265.829-421.363 301.496 23.729-71.081 105.534-186.731 174.1-214.585 21.04 46.767 25.522 126.617 14.344 221.1-24.5 81.965-60.653 128.588-104.385 124.034-50.654-52.116-103.249-134.297-154.814-215.013-53.033-43.98-102.34-32.624-146.94 34.633-44.208 99.024-83.472 191.62-117.8 238.987-34.053-17.849-63.623-94.711-88.641-197.47-25.019-80.309-44.909-102.975-59.589-60.618-15.464 66.012.77-16.085-18.868 93.462-29.906 56.737-74.283 73.868-133.9 46.959-145.7-151.388-299.317-307.245-388.644-359.55 20.451 59.164 134.582 149.212 244.322 192.905 9.777-2.306-20.087-23.45-88.921-59.177-94.454-47.811-195.127-101.75-277.24-156.873-41.967-56.845-32.6-109.375 26.236-156.134 87.339-44.067 177.352-81.969 238.621-114.547 7.928-30.357-41.8-57.061-135.776-81.256-107.215-23.521-190.756-45.806-219.43-67.261 36.67-21.456 125.229-41.591 232.821-59.862 57.067-37.925-181.665-31.774-133.969-4.9 86.483 17.935 187.969 35.605 279.718 48.196 63.4.5 86.637-12.566 70.669-43.334-116.25-109.847-226.1-261.512-236.337-376.933 99.1-3.941 256.1 101.046 398.9 207.743 56.367 4.561 97-33.36 123.155-109.234 6.472-173.421-22.468 5.886-21.124 21.4 3.418-66.312 12.635-165.816 27.4-258.509 15.086-46.6 35.2-26.1 60.219 54.2h0" opacity=".62"/><path d="M978.821 140.416c24.166 99.33 53.309 178.082 87.033 205.763 33.555-33.158 71.309-110.832 112.359-200.516 78.464-89.906 159.078 25.063 221.8 201.679 29.808 47.751 13.773-59.167-50.41-175.719-67.8-3.43-108.838 122.442-67.463 276.807 132.749 96.264 308.3 96.8 423.911 42.709-20.871-70.862-157.381-103.124-278.252-89.006 37.122 49.085 218.812 119.478 375.672 189.549 10.52 37.025-34.036 70.886-120.843 100.711-98.968 29.96-179.709 55.5-213.843 76.195 26.371 20.712 102.008 36.116 200.1 46.478 90.314 10.519 141.558 16.4 138.688 18.437-147.2 8.023-334.092 12.968-384.7 35.655 112.1 57.652 252.4 158.123 284.842 292.816-105.324 117.909-279.494 176.826-418.913 134.852-51.824-100.083-18.566-176.847 46.829-130.3 66.855 159.661 88.575 303.713 64.649 286.333-56.9-146.257-133.71-237.662-210.2-131.774-40.3 97.683-77.573 181.44-110.874 218.707-33.512-23.592-62.557-100.239-86.722-199.571-24.163-78.942-42.863-105.738-56.42-71.912-18.312 126.491-48.317 130.635-80.684-79.079-59.8 56.961-161.1 196.953-302.418 251.357-139.867-90.375-242.497-253.915-254.035-371.606 76.074-16.967 192.958 44.845 247.963 116.007-82.706 44.03-266.332 26.76-413.857-34.031 15.144-89.95 174.533-182.045 303.1-260.022-6.434-38.686-64.748-72.765-159.828-102.215-102.871-29.183-180.967-54.162-207.381-74.861 34.106-20.712 117.279-36.677 221.027-47.811 91.587-10.883 143.27-16.554 142.11-16.922-138.193-.121-292.393 16.615-294.118 34.807 156.264-10.98 336.1-61.919 407.311-169.769-124.406-195.638-175.82-172.938 21.635-68.471 138.66-97.539 234.29-274.662 288.221-361.983 37.245 146.1 90.257-34.589 123.713 56.707h0" opacity=".39"/><path d="M1094.758 161.426c46.592 174.939 103.182 183.88 162.471 30.782 69.9-77.957 56.019 207.394-32.937 55.464-30.766-69.829-4.913-11.24 103.467 127.419 232.288 179.932 208.363 143.715 61.1 88.632 81.6-7.023 269.524 17.427 398.287 58.292-53.833 49.783-236.544 98.593-345.982 138.709 96.711 40.117 280.95 69.643 347.981 95.506-117.622 34.779-307.5 83.314-401.115 159.85 65.446 97.775 205.578 217.489 289.278 329.046-36.322 58.834-177.026 41.739-337.355-48.282-116.294-86.074-151.388-97.092-127.106 14.5 61.6 165.7 112.437 257.656 132.048 186.541-2.957-146.384-36.008-197.593-84.128-67.135-56.433 168.581-111.623 167.77-158.229-7.169-46.587-106.55-82.352-6.334-113.79 154.573-39.75 15.689-91.441-140.113-169.227-290.776-100.339-.713-227.888 121.9-361.308 222.791-96.1-16.811-127.906-147.552-72.7-296.259 99.268-91.792 184.725-94.67 172.57-45.319-223.134 88.09-272.611 36.586-91.271-56.065-84.971-68.921-278.622-126.242-375.391-166.358 109.381-40.116 301.547-61.145 373.4-67.873-110.751-12.739-272.151-26.219-319.643-59.6 110.857-65.089 293.696-168.737 417.26-299.847-45.478-138.561-215.9 11.007-92.841 27.658 136.09-142.633 262.168-301.241 358.937-329.969 72.687 121.245 119.936 254.241 156.658 223.1 28.581-176.366 62.96-284.761 109.552-178.26l.014.05" opacity=".15"/><path d="M1128.783 162.736c44.89 90.126 84.637 102.83 113.49 30.557 21.889-70.1 21.73-53.836-5.418 29.869-32.7 73.131-74.971 75.47-98.94 22.341 28.447-57.815 119.152-65.715 266.376-20.415 148.555 74.7 241.138 140.358 221.373 176.812-109.329 5.471-233.12-8.773-258.852-25.637 210.436-21.116 238.379-.387 47.4 28.146 89.26 20.356 267.969 43.733 353.371 72.62-86.183 32.4-269.384 75.3-397.351 128.755 72.573 76.013 234.8 102.489 48.314 36.251-150.361-18.633-248.55 13.4-284.873 92.412 78.309 21.588 56.4 112.349-7.6 17.939-44.876-56.627-94.274-12.278-152.774 72.154-65.19 25.486-149.8-40.169-256.684-127.215-110.26-29.882-223.36 13.621-309.947 76.463-32.869 27.091.867-8.989 92.4-80.907 86.153-72.139 115.953-111.233 38.673-115.459-239.997 35.966-191.755 70.018-44.038 49.236-102.682-21.404-290.482-44.17-379.782-64.521 101.729-20.357 289.193-37.332 379.984-54.314-81.01-21.378-239.809-50.855-325.2-94.142 58.6-51.661 222.63-112.022 378.7-165.936 66.533-27.15 27.191-17.27-62.546 28.192-88.393 45.246-114.674 57.2-73.974 8.91 93.147-84.039 209.324-145.8 319.794-130.832 104.951 72.128 186.756 126.2 249.533 92.858 55.8-92.288 103.694-140.764 148.57-84.138h0" opacity=".41"/><path d="M1059.504 473.304c56.331 94.358 75.465-32.286 40.477 30.63-15.21 80.5-16.557 112.413 20.524 84.64 85.712-58.479 216.878-95.368 364.484-86.8 107.132 49.446 133.494 115.705 58.932 172.848-119.514 38.481-208.08 53.237-181.876 54.049 230.581-13.752 206.733-12.4 26 11.31 82.046 18.863 254.076 46.043 354.916 81.276-54.165 35.534-221.958 77.614-373.414 120.181-38.472 31.89 41.546 48.2 161.016 38.8 82.3-28.054 66.271-67.232-33.406-91.948-145.366 16.163-279.858 75.422-371.791 153.548-25.838-19.02-21.827 70.524-77.763-21.916-43.215-54.878-102.082-20.261-176.882 58.856-76.68 38.941-169.477-5.652-270.223-89.141-119.719-45.328-113.394 67.1 11.58 22.99 43.068-69.616 7.92-131.113-119.367-167.283-223.835-4.226-85.09 35.476 24.048 35.911-117.464-5.853-298.257-19.228-380.338-38.094 94.29-18.867 275.845-42.33 382.769-72.058-50.154-32.3-197.379-74.059-310.393-123.922 5.446-46.658 132.733-87.453 297.218-107.464 131.986 24.288-31.606 94.6-85.317 13.515 29.5-74.539 101.976-106.051 192.05-67.27 102.679 69.662 195.637 103.533 271.731 57.323 73.708-86.392 131.8-124.867 175.01-70.006l.015.026" opacity=".72"/><path d="M924.401 86.392c52.773 241.124 78.334-74.7 81.351 10.728 25.19 203.411 77.784 344.322 169.91 348.586 119.337-112.171 254.145-239.418 365.917-297.19 47.453 36.909 11.978 155.806-94.414 302.589-105.694 145.094-147.1 250.2-73.564 314.433 235.137 39.862 159.24 84.645-10.938 142.994 75.05 45.866 239.4 110.465 352.616 187.6-22.693 70.915-167.755 139.615-330.681 186.613-84.368 15.239-53.471-14.321 47.913-88.73 109.8-76.1 153.86-129.153 115.458-105.954-105.188 117.876-238.328 299.501-360.048 459.421-97.55 43.5-156.223-56.283-186.525-226.067-9.033-38.758-38.548 330.151-91.47 93.685-41.552-138.987-99.928-71.418-171.382 118.573-68.377 127.936-141.48 65.767-205.711-126.066-41.7-174.425-51.48-211.5-17.982-119.291 57.677 143.816 131.17 223.343 181.918 194.702-16.035-122.11-109.348-282.856-262.408-424.505-144.63-101.968-212.814-149.294-158.94-161.679 193.168 22.276 44.985 17.028-116.5-39.976 87.058-45.867 261.6-113.127 381.759-199.526-19.394-85.269-147.321-183.185-276.2-277.705-43.113-67.093 35.548-95.308 184.489-64.025 192.039 118.422 146.533 129.444 53.664-129.083-28.1-139.976-12.261-144.032 34.568-3.215 68.808 158.217 144.735 194.278 214.52 48.655 72.42-207.692 131.122-284.578 172.675-145.57h0" opacity=".59"/><path d="M799.263 119.939c39.858 201.438 68.558 280.76 90.558 180.897 27.447-185.678 59.3-287.069 106.964-226.51 67.364 178.443 161.677 354.5 280.327 431.434 117.819-45.544 220.285-159.33 273.1-261.236-13.361-47.154-92.169-9.441-202.682 87.92-71.863 134.028-61.491 265.053 49.851 372.2 161.677 89.314 286.683 152.145 291.94 199.455-114.709 39.256-272.99 77.732-352.96 121.534 68.195 43.818 223.742 90.889 346.03 134.276 7.126 35.309-109.425 52.18-271.419 38.775-130.328-60.644 74.422-173.828 137.752-56.661-44.19 159.33-140.948 325.048-256.715 416.2-119.888-31.324-217.718-168.077-289.219-314.379-52.478-28.455-88.2 97.892-118.167 300.442-24.352 116.789-54.214 46.341-94.071-155.1-39.872-138.109-87.851-90.242-138.684 84.85-45.216 148.958-82.024 137.343-98.647-19.037 2.4-191.734 34.573-294.32 93.014-269.1 54.335 119.417 93.86 238.176 85.828 287.47-73.673-37.41-204.733-149.059-355.434-287.744-105.802-141.217-120.308-249.295-29.877-320.788 132.751-43.586 226.656-67.926 204.176-89.446-137.658-14.849-301.267-41.392-369.507-85.215 79.925-43.8 246.267-102.8 376.376-170.579 10.176-61.107-92.124-116.474-224.572-148.811-82.129-4.446-56.766 31.457 56.585 105.141 152.011 71.179 278.111 119.958 343.719 99.965-.543-106.685-45.79-277.411-102.163-442.449-71.531-39.239-42.393 269.665 25.681 97.2 53.188-192.032 102.33-248.847 142.2-110.766l.015.066" opacity=".36"/><path d="M564.621 123.485c24.86 194.452 50.85 286.2 80.15 214.008 32.53-173.635 73.91-303.923 127.34-299.005 59.19 134.907 128.14 317.736 198.14 450.5 54.7 32.228 85.69-29.326 79.36-128.893-38.37-96.148-100.2-135.48-157.72-112.335-16.54 74.372 21.95 178.635 110.58 285.967 99.19 110.769 160.51 203.249 145.77 275.629-79.49 67.849-176.79 121.468-224.34 163.321 150.41 67.719-26.08-19.316-38.04-46.823 53.99 41.37 116.15 140.8 157.79 291.812 11.45 154.43-14.65 265.62-65.85 276.99-67.98-89.192-136.69-234.457-196.75-338.674-55.18 25.755-98.41 179.882-132.39 369.65-30.85 88.349-57.68 5.087-82.53-189.348-24.86-136.878-46.55-107.518-62.58 49.842-12.9 161.841-14.88 196.624-2.77 85.957 30.87-259.994 82.56-261.173 33.76-109.27-74.2 43.478-165.83 10.011-245.69-78.274-36.38-124.093-13.8-249.432 59.97-356.006 79.19-93.739 120.03-163.088 88.18-215.726-92.98-45.615-192.97-86.8-233.09-128.674 47.52-41.859 149.84-82.409 238.95-115.756 24.34-26.294-22.82-33.12-103.79-11.909-70.41 34.013-86.63 90.421-44.22 149.982 83.39 23.784 174.7-2.847 245.63-101.2 38.92-150.034 43.6-313.171 27.21-419.324-64.99 188.741-39.19-80.4-3.07 37.563h0" opacity=".45"/><path d="M861.687 154.922c23.3 186.415 54.34 288.12 93.35 243.357 40.33-154.213 90.05-300.981 147.37-345.972 54.78 79.275 108.54 240.642 150.55 401.346 20.87 100.48 14.7 111.408-21.54 55.866-76.42-135.089-85.37-195.716 39.4-107.447 84.92 85.626 124 170.911 93.79 244.62-80.7 74.818-169.98 133.314-212.34 173.1 35.25 39.783 121.77 58.957 205.28 59.162 36.89 1.315 4.49-11.593-77.02-28.275-94.49 1.895-162.07 24.945-183.83 87.3 24.58 101.757 74.88 239.634 125.53 386.47 39.3 107.673 49.7 143.9 32.94 84.858-38.28-119.263-89.63-244.961-143.23-295.074-56.95 74.147-106.98 243.538-147.81 413.118-39.73 60.118-71.22-33.533-94.53-219.93-23.3-134.7-37.3-122.916-41.52 13.659-3.12 165.84 4.53 239.993 21.1 180.745 13.22-157.132 26.21-326.95 28.59-432.724-19.14-10.091-62.99 58.684-132.82 155.22-81.18 90.901-159.12 130.36-207.96 113.884-2.51-62.661 44.16-155 121.56-253.413 64.44-104.868 83.6-195.379 37.74-267.551-92.49-69.235-183.73-123.219-219.01-163.005 42.33-39.783 136.32-63.464 226.02-69.269 39.23-2.835 13.42 15.3-54.42 51.222-76.29 29.468-118.19 56.293-109.71 57.641 54.01-44.8 134.33-141.407 214.95-284.452 86.59-206.647 107.65-164.525 85.55 30.545-16.94 30.067-24.27-66.708-20.66-247.915 4.92-151.941 19.38-171.782 42.68-37.081h0" opacity=".6"/><path d="M953.135 170.546c21.75 179.174 52.54 289.978 90.87 272.048 37.5-129.9 80.11-281.938 122.92-367.574 35.07 19.917 60.57 138.309 68.32 296.588-10 143.855-41.25 224.852-88.4 236.4-43.12-48.591-72.47-121.932-69.64-188.121 43.47-54.208 120.47-73.218 208.92-61.184 66.15 32.406 83.72 80.718 41.19 132.5-79.72 56.724-160.68 106.536-198.08 144.472 30.67 37.917 108.53 62.16 190.04 76.986 48.17 19.744 37.17 40.429-24.42 73.746-87.46 53.686-167.19 135.152-215.6 247.822-8.43 124.652 16.7 252.445 57.87 350.726 47.5 38.179 80.99 2.145 94.12-102.188-4.02-118.792-26.25-203.173-58.88-195.289-40.78 113.431-82.18 287.041-119.09 431.576-37.93 32.58-68.6-70.55-90.35-249.706-21.75-132.155-33.55-135.727-36.63-20.455-4.1 162.814-2.26 267.008.84 258.025-5.06-114.275-18.63-278.641-48.12-421.8-46.64-78.276-111.35-75.747-187.35-17.445-87.04 166.738 67.66 20.388 10.43-85.706-89.89-69.989-172.15-125.54-202.85-163.457 37.38-37.935 122.72-56.456 210.85-57.992 50.93-3.61 45.75 3.767-4.45 11.756-72.51-10.187-130.01-41.319-150.85-108.152 19.81-100.461 74.94-232.579 146.56-373.417 75.66-108.017 138.14-155.506 181.65-116.74 31.48 203.819 42.55-133.517 70.13-3.419h0" opacity=".56"/><path d="M1039.121 197.661c20.2 170.407 45.44 286.889 73.58 293.35 26.12-101.358 50.99-246.062 69.63-357.981 10.45-34.313 8.02 27.94-10.55 154.787-27.17 151.553-64.72 278.137-103.1 354.129-21.97 20.325-21.33-4.4 11.43-50.164 62.12-60.691 142.27-108.351 217.76-134.282 45-15.46 43.11-9.354-8.32 12.017-76.78 26.218-149.23 59.217-181.94 95.056 26.38 35.857 95.47 72.849 173.11 114.227 55.95 46.223 63.93 105.316 24.11 182.9-72.76 88.036-153.48 194.74-218.8 310.671-40.36 139.1 30.16 132.8 77.14-23.487 20.83-89.517 25.89-119.623 17.87-59.04-16.12 138.197-39.09 303.28-63.99 418.483-26.99 7.366-51.67-101.857-71.86-272.245-20.19-128.8-34.95-146.995-46.04-55.223-13.19 151.895-26.95 275.547-45.82 312.38-26.97-61.454-65.28-195.754-117.23-347.242-59.43-125.8-125.73-190.662-188.46-194.5-44.82 48.163-63.31 117.053-46.72 179.927 44.29 54.548 106.9 78.885 164.87 75.335 25.02-20.893 5.57-58.116-58.16-101.2-85.42-47.819-158.62-91.966-185.01-127.805 32.67-35.857 109.2-61.685 193.79-81.476 59.23-24.514 72.64-52.507 42.44-93.724-60.69-58.56-122.73-141.936-163.83-251.725-11.74-118.114 11.57-238.482 60-333.609 64.84-43.135 131.38-20.786 189.68 67.686 49.69 114.173 85.37 216.347 109.92 251.529 16.36-63.1 28.22-207.188 40.18-372.891 9.94-105.617 24.13-94.683 44.32 34.118h0" opacity=".77"/><path d="M1070.85 233.362c46.65 199.486 49.36-89.011 12.29-8.579-26.49 127.706-52.26 266.446-67.78 383.867 5.42 83.531 34.34 122.922 88.33 128.127 69.47-23.884 142.54-57.117 199.44-85.583 23.62-31.3 5.34-46.833-51.52-44.777-72.14 3.9-136.02 23.3-164.3 57.465 22.36 34.167 82.73 81.477 154.89 142.021 60.23 62.378 83.81 140.059 65.51 230.574-52.98 87.668-124.69 177.173-195.33 253.72-57.25 47.452-90.41 57.1-99.94 18.349 11.93-72.623 35.41-170.854 60.92-263 27.94-42.416 47.37-16.625 56.38 85.711 2.23 224.154-33.04 312.16-60.02 91.925-18.63-126.826-38.36-158.94-60.29-90.514-23.77 136.358-53 270.075-89.87 344.513-41.31-7.368-91.43-95.7-148.09-228.905-54.25-143.814-104.49-257.958-140.86-324.772-14.91-17.267-3.86 4.839 33.97 45.843 78.73 79.241 133.12 151.589 48.62 137.106-79.35-18.822-143.5-46.8-165.89-80.964 28.26-34.163 95.91-72.913 175.24-118.519 64.07-49.532 92.97-112.528 83.03-192.521-43.24-87.2-99.59-189.771-149.66-298.523-34.58-93.667-41.41-164.824-22.4-192.338 39.96 22.033 92.48 95.665 147.7 203.9 56.56 97.625 105.73 155.347 145.72 137.659 35.14-99.477 62.81-252.643 85.44-402.2 20.74-81.624 39.83-56.42 58.47 70.405h0" opacity=".74"/><path d="M1030.688 503.835c34.18 146.62 41.76 146.7 18.84 29.64-24.05-81.94-57.32-24.5-51.74 99 76.06 112.51 205.95 159.51 301.22 168.2-23.11-15.27-148.47-14.25-231.41 19.92 73.82 34.17 200.95 98.27 233.18 172.76-87.85 50.53-218.52 56.86-300.56-10.86 1.65-89.31 60.13 156.07 22.79 16.34-34.16-86.32-92.93 1.88-176.01 119.42-82.41 3.05-164.95-117.74-196.81-240.07 84.45-56.6 66.75-.6-77.59-34.87 82.91-34.17 222.14-99.1 270.32-189.06-117.05-111.24-112.65-6.28 13.93 7.91 82.14-142.6 139.67-244.65 173.84-158.33h0" opacity=".75"/><path d="M940.746 524.384c32.29 149.58 15.03-34.23 74.05 46.78 98.55 116.84 213.29 205.83 267 255.37-47.74 26.07-165.34 44.99-235.79 76.06 120.64 51.2 133.19 83.14-24.16-13.23-61.06-41.48-74.65-6.16-72.36 119.94 15.37 114.09 12.49 102.61-18.58-34.92-31.05-86.47-87.35-25.15-156.57 89.09-56.13 49.18-91.04-20.11-70.7-134.79 60.61-102.94 139.69-151.44 162.33-166.09-77.85 7-208.15 3.26-269.96-27.81 70.41-31.06 200.62-86.5 271.15-147.34-30.93-39.2-112.72-39.2-170.56 23.01-14.23 73.97 26.09 110.34 85.24 38.41 71.09-137.01 127.83-210.95 158.9-124.52l.01.04" opacity=".87"/><path d="M851.293 547.618c27.96 127.12 39.78 170.39 48.02 109.68 23.64-103.8 71.61-151.85 155.95-123.13 97.13 82.62 180.61 175.46 194.25 246.01-63.85 60.04-170.11 99.88-228.71 127.83 102.98 34.68 179.83-16.89 44.07-87.47-87.49 7.93-139.93 85.64-167.05 209.93-11.52 81.2-24.93 49.27-52.89-77.85-47.88-66.78-121.69 122.81-66.45 36.59 59.92-105.54 108.65-188.74 93.81-239-89.66-31.99-205.97-54.52-256.49-82.47 58.58-27.96 176.17-58.71 260.53-75.17 6.87 1.81-46.96 41.36-107.44 110.26-47.7 42.46-52.03 27.03-27.23-71.97 40.22-120.74 81.67-167.98 109.63-83.24h0" opacity=".13"/><path d="M814.007 570.938c24.86 115.43 51.26 172.34 87.09 142.93 46.58-86.69 116.08-157.6 202.76-175.6 75.72 29.74 120.61 92.06 101.13 154.32-71.19 65.73-163.42 113.39-210.97 138.24 40.09 24.85 129.97 24.56 204.43 1.89 26.19-19.19-12.62-42.72-85.24-39.89-86.44 50.58-157.93 147.84-206.83 252.75-38.66 47.63-66.76.79-91.61-114.64-24.86-81.29-44.12-68.1-48.52 10.59 5.83 88.81 38.53 119.42 92.39 88.11 40.05-73.49 52.51-155.49 8.11-219.97-92.66-58.2-192.61-97.79-232.73-122.64 47.53-24.85 149.83-32.63 239.25-17.49 37.71 21.41 19.18 64.63-23.97 105.54-54.11-1.26-84.82-58.23-88.33-165.26 7.24-96.91 28.19-120.17 53.04-38.88h0" opacity=".37"/><path d="M852.799 594.164c21.74 102.69 57.44 167.49 107.33 166.37 52.99-58.22 119.62-127.98 185.3-172.54 43.43-17.4 51.56.53 9.57 34.2-70.43 43.78-146.94 81.82-184.34 103.57 30.68 21.75 104.1 25.14 175.9 19.04 46.79 4.02 44.33 20.02 5.21 65.93-62.86 73.06-128.78 165.89-182.18 240.05-51.02 17.06-87.61-38.93-109.36-141.62-21.74-76.04-26.59-81.66-13.25-28.36 31.7 109.68 82.37 97.41 9.35 19.42-87.73-56.65-169.97-98.87-200.67-120.61 37.38-21.75 122.7-20.97 209.08-2 57.94 14.59 72.88 32.08 57.95 29.38-37.17-39.71-69.87-118.86-85.17-216.44-12.21-69.24-6.47-72.43 15.28 3.61h0" opacity=".48"/><path d="M943.589 617.289c18.64 89.05 52.87 155.93 97.82 176.95 42.32-26.05 87.18-76.2 120.05-123.09 11.07-41.23-8.33-57.77-60.71-54.05-62.99 12.16-123.11 31.46-151.39 50.1 22.36 18.64 79.03 34.85 141.81 54.99 55.08 28.58 78.71 74.21 71.77 139.88-29.01 71.31-71.41 141.23-112.53 180.95-44.25-7.36-78.32-66.68-96.96-155.73-19.36-79.07 7.34 30.62 18.57 96.5-17.48 15.22-60.89 3.44-129.63-21.39-76.45-32.87-140.67-62.93-163.03-81.57 28.28-18.64 95.96-24.09 172.61-23.52 66.04-7.47 105.21-24.78 118.58-64.43-8.44-60.39-24.22-140.02-34.23-215.48-12.65-41.5-11.37-29.3 7.27 39.89h0" opacity=".69"/><path d="M1031.429 637.944c31.07 137.54 88.23 170.77 107.84 123.39-36.61-76.56-142.38-98.01-212.83-66.95 61.79 31.07 167.43 108.78 209 226.05-12.83 88.1-66.3 80.05-97.36-57.49-31.07-86.47-33.85-37.7-61.74 37.78-82.29 57.78-213.11 47.9-274.9 16.83 70.45-31.06 201.4-77.43 278.73-175.93 21.11-116.19 20.19-190.15 51.26-103.68h0" opacity=".08"/><path d="M1062.634 661.304c24.85 115.42 39.8 177.09 14.76 174.76-49.04-43.37-131.12-68.82-178.66-43.97 40.09 24.85 119.78 95.31 170.65 171.25 29.34 34.9 17.73-6.62-7.12-122.04-24.86-81.29-58.25-76.37-120.16-31.99-83.44 61.84-183.28 83.38-223.37 58.52 47.54-24.85 149.77-91.38 231.38-185.8 57.62-76.95 87.67-102.02 112.52-20.73h0" opacity=".44"/><path d="M1019.178 683.312c37.27 154.12-54.24 167.56-150.13 204.83 86.45 37.28 180.21 84.29 142.94-69.83-37.28-84.45-191.49-17.84-277.94-55.12 95.89-37.27 247.85-164.33 285.13-79.88h0" opacity=".45"/><path d="M941.608 701.968c-6.01 150.62-14.67 220.47-9.87 90-74.65-86.77-66-156.62 9.87-90h0" opacity=".38"/></g></svg>