<svg xmlns="http://www.w3.org/2000/svg" width="197.453" height="270.279"><path d="M174.777 269.843H88.811a22.7 22.7 0 01-22.676-22.676V22.676A22.7 22.7 0 0188.811 0h85.966a22.7 22.7 0 0122.676 22.676v224.491a22.7 22.7 0 01-22.676 22.676z" fill="#dadbdc"/><path d="M174.84 263.704H88.748a16.807 16.807 0 01-16.786-16.786V22.484A16.807 16.807 0 0188.748 5.698h86.091a16.807 16.807 0 0116.786 16.786v224.434a16.807 16.807 0 01-16.785 16.786z" fill="#fff"/><path d="M143.969 20.637h-24.345a5.827 5.827 0 010-11.654h24.345a5.827 5.827 0 110 11.654zm24.843 68.534H97.576c-1.411 0-2.56-1.46-2.56-3.25s1.148-3.25 2.56-3.25h71.237c1.411 0 2.56 1.46 2.56 3.25s-1.15 3.25-2.561 3.25zm0 14.4H97.576c-1.411 0-2.56-1.46-2.56-3.25s1.148-3.25 2.56-3.25h71.237c1.411 0 2.56 1.46 2.56 3.25s-1.15 3.25-2.561 3.25zm-20.428 14.401H97.576c-1.411 0-2.56-1.46-2.56-3.25s1.148-3.25 2.56-3.25h50.809c1.411 0 2.56 1.46 2.56 3.25s-1.149 3.25-2.561 3.25z" fill="#dadbdc"/><g transform="translate(101.386 141.823)"><circle cx="30.408" cy="30.408" r="30.408" fill="#2ecc71"/><path d="M22.32 31.04l4.714 9.232a1.125 1.125 0 002.034-.267 42.03 42.03 0 0111.049-18.117c1.033-1-.543-2.569-1.576-1.576a44.391 44.391 0 00-11.623 19.1l2.034-.267-4.714-9.232c-.65-1.278-2.573-.151-1.923 1.122z" fill="#fff"/></g><g transform="translate(26.758 112.381)"><path d="M23.062 23.068l-7.372 2.515-.115-10.643 6.708-.076z" fill="#f3a3a6"/><circle cx="7.372" cy="7.372" r="7.372" transform="translate(9.067 3.135)" fill="#f3a3a6"/><path d="M18.455 9.754c-1.233-.022-2.057-1.26-2.551-2.395s-1-2.435-2.146-2.893c-.939-.374-2.56 2.239-3.307 1.558-.779-.712-.067-4.425.743-5.1a5.042 5.042 0 012.978-.877 30.608 30.608 0 017.674.53 8.287 8.287 0 014.3 1.892c1.438 1.411 1.825 3.561 1.95 5.573a11.187 11.187 0 01-.948 6.032 4.95 4.95 0 01-5.079 2.729 13.212 13.212 0 01.045-3.325 4.667 4.667 0 00-.717-3.183 2.047 2.047 0 00-2.916-.418" fill="#2f2e43"/><path d="M27.549 12.206a3.673 3.673 0 012.515-.908 2.549 2.549 0 012.083 1.861 3.282 3.282 0 01-.605 2.8 4.594 4.594 0 01-2.444 1.58 2.565 2.565 0 01-1.683 0 1.714 1.714 0 01-.913-2.1" fill="#2f2e43"/><path d="M.12 81.849c-.463 2.426.458 4.63 2.065 4.919s3.281-1.447 3.744-3.873a5.939 5.939 0 00-.129-2.916l5.671-38.02-7.639-1.349-2.515 38.563a6.04 6.04 0 00-1.2 2.68z" fill="#f3a3a6"/><path d="M15.558 20.7l-5.2.058c-3.672.6-4.652 2.573-5.444 6.205C3.699 32.505 2.15 39.89 2.475 39.992c.521.169 9.424 4.238 13.929 3.232z" fill="orange"/><path fill="#f3a3a6" d="M15.022 141.613l6.926-.076.108 9.824-6.926.076z"/><path d="M8.435 157.462c-.73.009-1.375 0-1.865-.04a8.654 8.654 0 01-4.5-2.27 1.252 1.252 0 01-.334-1.411 1.257 1.257 0 01.8-.73l4.848-1.442 7.812-5.4.089.156a13.68 13.68 0 011.091 2.381 1.061 1.061 0 01-.067.886.887.887 0 01-.361.312 3.61 3.61 0 001.972.65 2.18 2.18 0 002.426-1.879l.013-.071.058-.04c.948-.628 1.531-.913 1.736-.855.129.036.338.1.97 5.76a5.836 5.836 0 01.214 2.729c-.28 1.362-6.214.957-7.4.864-.036 0-4.469.369-7.51.4h.009z" fill="#2f2e43"/><path fill="#f3a3a6" d="M35.742 137.315l5.835-3.73 5.292 8.277-5.836 3.73z"/><path d="M34.008 155.828a12.178 12.178 0 01-2.1-.169 1.253 1.253 0 01-1.028-1.024 1.247 1.247 0 01.294-1.042l3.348-3.788 3.77-8.716.16.085a14.032 14.032 0 012.186 1.442 1.069 1.069 0 01.414.788.82.82 0 01-.142.454 3.621 3.621 0 002.017-.494 2.178 2.178 0 001.064-2.876l-.027-.067.031-.062c.472-1.033.819-1.585 1.019-1.647.129-.036.338-.1 3.873 4.371a5.8 5.8 0 011.625 2.2c.481 1.3-4.763 4.1-5.822 4.647a92.8 92.8 0 01-7.763 5.266 6.587 6.587 0 01-2.929.623l.009.009zm-7.887-96.525l-19.391.214-1.558 18.055 8.44 66.562 9.9-.111-4.385-38.452 16.444 34.579 8.729-6.259-12.9-32.309s4.167-28.316.57-35.318-5.845-6.975-5.845-6.975v.009z" fill="#2f2e43"/><path d="M35.781 60.296l-30.8.343 8.8-39.916 13.421-.151z" fill="orange"/><path d="M38.785 81.422c.516 2.417-.356 4.638-1.954 4.963s-3.312-1.371-3.828-3.788a5.952 5.952 0 01.062-2.92l-6.517-37.886 7.608-1.518 3.37 38.5a6.1 6.1 0 011.26 2.653z" fill="#f3a3a6"/><path d="M21.996 20.629l5.2-.058c3.686.516 4.705 2.471 5.582 6.085 1.335 5.515 3.049 12.86 2.729 12.972-.521.178-9.326 4.443-13.853 3.539l.343-22.538z" fill="orange"/></g><path d="M95.742 269.842a.437.437 0 01-.436.436H.436a.436.436 0 010-.872h94.87a.437.437 0 01.436.436z" fill="#3f3d58"/></svg>