<svg xmlns="http://www.w3.org/2000/svg" width="38.971" height="31.664"><path d="M15.832 0a3.654 3.654 0 00-3.654 3.654v1.217H3.654A3.654 3.654 0 000 8.525v19.486a3.654 3.654 0 003.654 3.654h31.664a3.654 3.654 0 003.654-3.654V8.525a3.654 3.654 0 00-3.654-3.654h-8.525V3.654A3.654 3.654 0 0023.139 0zm0 2.436h7.307a1.218 1.218 0 011.218 1.218v1.217h-9.743V3.654a1.218 1.218 0 011.218-1.218zm4.594 16.84l16.11-4.294v13.029a1.218 1.218 0 01-1.218 1.218H3.654a1.218 1.218 0 01-1.218-1.218V14.98l16.11 4.3a3.654 3.654 0 001.88 0zM3.654 7.307h31.664a1.218 1.218 0 011.218 1.218v3.936L19.8 16.923a1.218 1.218 0 01-.628 0L2.436 12.461V8.525a1.218 1.218 0 011.218-1.218z" fill="#fff"/></svg>